<svg id="Lager_3" data-name="Lager 3" xmlns="http://www.w3.org/2000/svg" viewBox="0 0 587.13 587.13"><defs><style>.cls-1{fill:#fc0012;}.cls-2{fill:#cb0010;}</style></defs><title>covid-virus-icon</title><circle class="cls-1" cx="292.75" cy="295.66" r="193.5"/><circle class="cls-2" cx="321.18" cy="168.34" r="12"/><circle class="cls-2" cx="396.36" cy="185.44" r="8"/><circle class="cls-2" cx="403.33" cy="252.19" r="18"/><circle class="cls-2" cx="399.03" cy="365.7" r="16.5"/><circle class="cls-2" cx="338.77" cy="432.73" r="13.5"/><circle class="cls-2" cx="294.06" cy="295.12" r="37.5"/><circle class="cls-2" cx="229.39" cy="201.74" r="23"/><circle class="cls-2" cx="253.69" cy="412.08" r="22"/><circle class="cls-2" cx="180.97" cy="391.67" r="12"/><circle class="cls-2" cx="182.67" cy="314.44" r="18"/><circle class="cls-2" cx="150.52" cy="249.69" r="10.5"/><path class="cls-1" d="M582.84,334.08l21.36-59.35s5.36-12.93,25.12-18.82S640,230.05,640,230.05s-4.87-11.76-21.5-18.65l.11,0c-16.63-6.89-28.39-2-28.39-2s-20.53,7.73-10.73,25.87S584,266.35,584,266.35l-26.9,57Z" transform="translate(-204.88 -207.69)"/><path class="cls-1" d="M414.05,668.42l-21.36,59.35s-5.36,12.93-25.12,18.82-10.72,25.86-10.72,25.86,4.87,11.76,21.5,18.65l-.11,0c16.63,6.89,28.39,2,28.39,2s20.53-7.73,10.72-25.87-4.44-31.07-4.44-31.07l26.9-57Z" transform="translate(-204.88 -207.69)"/><path class="cls-1" d="M331.27,416.85,271.92,395.5s-12.93-5.36-18.81-25.12-25.87-10.72-25.87-10.72-11.76,4.86-18.65,21.49l0-.1c-6.89,16.63-2,28.39-2,28.39s7.73,20.52,25.86,10.72,31.07-4.44,31.07-4.44l57,26.9Z" transform="translate(-204.88 -207.69)"/><path class="cls-1" d="M665.62,585.65,725,607s12.94,5.36,18.82,25.12,25.87,10.72,25.87,10.72,11.76-4.86,18.65-21.49l0,.1c6.89-16.63,2-28.39,2-28.39s-7.73-20.52-25.86-10.72-31.07,4.44-31.07,4.44l-57.05-26.9Z" transform="translate(-204.88 -207.69)"/><path class="cls-1" d="M439.91,323.36,413.05,266.3s-5.36-12.94,4.46-31.07-10.71-25.87-10.71-25.87-11.76-4.87-28.39,2l.1,0C361.88,218.21,357,230,357,230s-9.05,20,10.7,25.87,25.11,18.83,25.11,18.83L414.14,334Z" transform="translate(-204.88 -207.69)"/><path class="cls-1" d="M557,679.14l26.86,57.06s5.36,12.94-4.46,31.07,10.71,25.87,10.71,25.87,11.76,4.87,28.39-2l-.1,0c16.63-6.88,21.5-18.64,21.5-18.64s9-20-10.7-25.87-25.11-18.83-25.11-18.83l-21.32-59.36Z" transform="translate(-204.88 -207.69)"/><path class="cls-1" d="M320.56,559.78l-57.07,26.87s-12.93,5.35-31.06-4.46-25.88,10.71-25.88,10.71-4.87,11.75,2,28.39l0-.11c6.89,16.63,18.64,21.51,18.64,21.51s20,9,25.87-10.71,18.83-25.11,18.83-25.11l59.36-21.32Z" transform="translate(-204.88 -207.69)"/><path class="cls-1" d="M676.33,442.72l57.07-26.87s12.93-5.35,31.06,4.46,25.87-10.71,25.87-10.71,4.88-11.75-2-28.39l0,.11c-6.89-16.63-18.64-21.51-18.64-21.51s-20-9.05-25.88,10.71S725,395.63,725,395.63L665.67,417Z" transform="translate(-204.88 -207.69)"/><path class="cls-1" d="M636.27,375s7.53-7.76,23.39-6.36,15.06-15.52,15.06-15.52-.15-9.83-10.13-19.51l.07.06c-10-9.68-19.81-9.54-19.81-9.54s-16.94-.29-15.06,15.52-5.65,23.57-5.65,23.57" transform="translate(-204.88 -207.69)"/><path class="cls-1" d="M361.72,631.17s-7.53,7.76-23.39,6.36-15.06,15.52-15.06,15.52.15,9.83,10.13,19.51l-.06-.06c10,9.68,19.8,9.53,19.8,9.53s16.94.3,15.06-15.52,5.65-23.57,5.65-23.57" transform="translate(-204.88 -207.69)"/><path class="cls-1" d="M507.49,315.49s0-10.81,12.27-20.9-.09-21.63-.09-21.63-7-6.92-20.88-6.86h.08c-13.9.06-20.82,7-20.82,7s-12.31,11.64.09,21.63,12.45,20.8,12.45,20.8" transform="translate(-204.88 -207.69)"/><path class="cls-1" d="M490.5,690.64s0,10.81-12.27,20.9.09,21.63.09,21.63,7,6.92,20.89,6.86h-.09c13.9-.06,20.82-7,20.82-7s12.31-11.64-.09-21.63-12.45-20.8-12.45-20.8" transform="translate(-204.88 -207.69)"/><path class="cls-1" d="M636.27,375s7.53-7.76,23.39-6.36,15.06-15.52,15.06-15.52-.15-9.83-10.13-19.51l.07.06c-10-9.68-19.81-9.54-19.81-9.54s-16.94-.29-15.06,15.52-5.65,23.57-5.65,23.57" transform="translate(-204.88 -207.69)"/><path class="cls-1" d="M361.72,631.17s-7.53,7.76-23.39,6.36-15.06,15.52-15.06,15.52.15,9.83,10.13,19.51l-.06-.06c10,9.68,19.8,9.53,19.8,9.53s16.94.3,15.06-15.52,5.65-23.57,5.65-23.57" transform="translate(-204.88 -207.69)"/><path class="cls-1" d="M370.89,365.79s-7.76-7.53-6.36-23.39S349,327.34,349,327.34s-9.83.15-19.51,10.13l.06-.07c-9.68,10-9.53,19.81-9.53,19.81s-.3,16.94,15.52,15.06,23.57,5.65,23.57,5.65" transform="translate(-204.88 -207.69)"/><path class="cls-1" d="M627.1,640.34s7.76,7.53,6.36,23.39S649,678.79,649,678.79s9.83-.15,19.51-10.13l-.06.06c9.68-10,9.54-19.8,9.54-19.8s.29-16.94-15.52-15.06-23.57-5.65-23.57-5.65" transform="translate(-204.88 -207.69)"/><path class="cls-1" d="M311.42,494.57s-10.81,0-20.9-12.27-21.63.09-21.63.09-6.92,7-6.86,20.88v-.08c.06,13.9,7,20.82,7,20.82s11.64,12.31,21.63-.09,20.8-12.45,20.8-12.45" transform="translate(-204.88 -207.69)"/><path class="cls-1" d="M686.57,511.56s10.81,0,20.9,12.27,21.63-.09,21.63-.09,6.92-7,6.86-20.89v.09c-.06-13.9-7-20.82-7-20.82s-11.64-12.31-21.63.09-20.8,12.45-20.8,12.45" transform="translate(-204.88 -207.69)"/><path class="cls-1" d="M370.89,365.79s-7.76-7.53-6.36-23.39S349,327.34,349,327.34s-9.83.15-19.51,10.13l.06-.07c-9.68,10-9.53,19.81-9.53,19.81s-.3,16.94,15.52,15.06,23.57,5.65,23.57,5.65" transform="translate(-204.88 -207.69)"/><path class="cls-1" d="M627.1,640.34s7.76,7.53,6.36,23.39S649,678.79,649,678.79s9.83-.15,19.51-10.13l-.06.06c9.68-10,9.54-19.8,9.54-19.8s.29-16.94-15.52-15.06-23.57-5.65-23.57-5.65" transform="translate(-204.88 -207.69)"/></svg>