<?xml version="1.0" encoding="UTF-8" standalone="no"?>
<svg width="64px" height="64px" viewBox="0 0 64 64" version="1.1" xmlns="http://www.w3.org/2000/svg" xmlns:xlink="http://www.w3.org/1999/xlink">
    <!-- Generator: Sketch 3.7.2 (28276) - http://www.bohemiancoding.com/sketch -->
    <title>spe-rect-text</title>
    <desc>Created with Sketch.</desc>
    <defs></defs>
    <g id="64px-Line" stroke="none" stroke-width="1" fill="none" fill-rule="evenodd">
        <g id="spe-rect-text"></g>
        <path d="M54,6 L8,6 C5.794,6 4,7.794 4,10 L4,44 C4,46.206 5.794,48 8,48 L15,48 C15.552,48 16,48.449 16,49 L16,57 C16,57.396 16.233,57.754 16.596,57.915 C16.726,57.973 16.864,58 17,58 C17.244,58 17.485,57.911 17.673,57.74 L27.814,48.521 C28.184,48.186 28.663,48 29.161,48 L54,48 C56.206,48 58,46.206 58,44 L58,10 C58,7.794 56.206,6 54,6 L54,6 Z M56,44 C56,45.103 55.103,46 54,46 L29.16,46 C28.163,46 27.208,46.369 26.469,47.041 L18,54.739 L18,49 C18,47.346 16.654,46 15,46 L8,46 C6.897,46 6,45.103 6,44 L6,10 C6,8.897 6.897,8 8,8 L54,8 C55.103,8 56,8.897 56,10 L56,44 L56,44 Z" id="Shape" fill="#000000"></path>
        <path d="M45,18 L17,18 C16.447,18 16,18.448 16,19 C16,19.552 16.447,20 17,20 L45,20 C45.553,20 46,19.552 46,19 C46,18.448 45.553,18 45,18 L45,18 Z" id="Shape" fill="#000000"></path>
        <path d="M45,26 L17,26 C16.447,26 16,26.448 16,27 C16,27.552 16.447,28 17,28 L45,28 C45.553,28 46,27.552 46,27 C46,26.448 45.553,26 45,26 L45,26 Z" id="Shape" fill="#000000"></path>
        <path d="M37,34 L17,34 C16.447,34 16,34.448 16,35 C16,35.552 16.447,36 17,36 L37,36 C37.553,36 38,35.552 38,35 C38,34.448 37.553,34 37,34 L37,34 Z" id="Shape" fill="#000000"></path>
    </g>
</svg>