<svg width="16" height="16" viewBox="0 0 16 16" fill="none" xmlns="http://www.w3.org/2000/svg">
<path d="M15.5547 8.14844C15.5547 3.89844 12.0547 0.398438 7.80469 0.398438C3.52344 0.398438 0.0546875 3.89844 0.0546875 8.14844C0.0546875 12.4297 3.52344 15.8984 7.80469 15.8984C12.0547 15.8984 15.5547 12.4297 15.5547 8.14844ZM6.89844 12.2734C6.71094 12.4609 6.36719 12.4609 6.17969 12.2734L2.92969 9.02344C2.74219 8.83594 2.74219 8.49219 2.92969 8.30469L3.64844 7.61719C3.83594 7.39844 4.14844 7.39844 4.33594 7.61719L6.55469 9.80469L11.2422 5.11719C11.4297 4.89844 11.7422 4.89844 11.9297 5.11719L12.6484 5.80469C12.8359 5.99219 12.8359 6.33594 12.6484 6.52344L6.89844 12.2734Z" fill="black"/>
</svg>
