<?xml version="1.0" encoding="utf-8"?>
<!-- Generator: Adobe Illustrator 22.1.0, SVG Export Plug-In . SVG Version: 6.00 Build 0)  -->
<svg version="1.1" xmlns="http://www.w3.org/2000/svg" xmlns:xlink="http://www.w3.org/1999/xlink" x="0px" y="0px"
	 viewBox="0 0 130 142" style="enable-background:new 0 0 130 142;" xml:space="preserve">
<style type="text/css">
	.st0{fill:none;stroke:#FFFFFF;stroke-linecap:round;stroke-miterlimit:10;}
	.st1{fill:none;stroke:#FFFFFF;stroke-width:2;stroke-linecap:round;stroke-miterlimit:10;}
	.st2{fill:#FFFFFF;}
	.st3{font-family:'Gotham-Medium';}
	.st4{font-size:6px;}
</style>
<g id="Layer_1">
	<path class="st0" d="M78,26.1c22.6,5.7,39.2,26.1,39.2,50.4c0,1.5-0.1,3-0.2,4.5"/>
	<path class="st0" d="M13.5,81.8c-0.2-1.7-0.3-3.5-0.3-5.3c0-24.5,16.9-45,39.8-50.6"/>
	<path class="st0" d="M102.3,113c-9.4,9.6-22.5,15.5-37,15.5c-14.5,0-27.6-5.9-37-15.5"/>
	<path class="st1" d="M78,22c24.8,5.8,43.2,28,43.2,54.5c0,1.5-0.1,3-0.2,4.5"/>
	<path class="st1" d="M9.4,81c-0.1-1.5-0.2-3-0.2-4.5c0-26.7,18.7-49.1,43.7-54.6"/>
	<path class="st1" d="M107.7,113c-10.3,11.9-25.5,19.5-42.5,19.5c-17,0-32.2-7.6-42.5-19.5"/>
	<g>
		<path class="st2" d="M74.2,59.4v-7.3h0.6v-2.6h0.6c0-0.9,0.3-1.9,1.3-1.9v-0.8h-3.6l-5.4-15.3h-4.9l-5.4,15.3h-3.6v0.8
			c0.9,0,1.3,0.9,1.3,1.9h0.6v2.6h0.6v7.3h0.3v12.9H55V74c1.3,0,1.8,0.8,1.8,2.3h17c0-1.5,0.6-2.3,1.7-2.3v-1.7l-2.8,0l-12.7,0v-14
			c0,0-0.2-1.4,1.5-1.2c0,0,0.6-4,3.4-4c2.7,0,3,0.9,3.6,3.8c0,0,1.7,0,1.7,1.6c0,1.6,0,13.8,0,13.8l3.6,0.2l0-13.1L74.2,59.4z"/>
		<g>
			<rect x="59.6" y="65.8" class="st2" width="11" height="1.4"/>
			<path class="st2" d="M65.1,66.5"/>
		</g>
		<g>
			<rect x="62.4" y="67.2" class="st2" width="0.4" height="6"/>
			<path class="st2" d="M62.6,70.2"/>
		</g>
		<g>
			<rect x="67.5" y="67.2" class="st2" width="0.4" height="6"/>
			<path class="st2" d="M67.7,70.2"/>
		</g>
		<g>
			<rect x="64.9" y="67.2" class="st2" width="0.4" height="6"/>
			<path class="st2" d="M65.1,70.2"/>
		</g>
		<polygon class="st2" points="55,44.5 56.3,44.5 55.6,40 		"/>
		<polygon class="st2" points="74.1,44.5 75.3,44.5 74.7,40 		"/>
		<g>
			<rect x="65" y="12.9" class="st2" width="0.4" height="19"/>
			<path class="st2" d="M65.2,22.9"/>
		</g>
		<polygon class="st2" points="63.2,27.9 67.3,27.9 66.7,30.4 63.9,30.4 		"/>
		<polygon class="st2" points="64.5,24.5 66,24.5 65.3,27 		"/>
		<g>
			<polygon class="st2" points="67.4,18.1 67.2,17.9 63.1,22.5 63.2,22.7 			"/>
			<path class="st2" d="M65.2,20.3"/>
		</g>
		<g>
			<polygon class="st2" points="63.2,17.9 63.1,18.1 67.2,22.7 67.4,22.5 			"/>
			<path class="st2" d="M65.2,20.3"/>
		</g>
		<g>
			<path class="st2" d="M63.4,18.6c0.2,0,0.4-0.2,0.4-0.4c0-0.2-0.2-0.4-0.4-0.4c-0.2,0-0.4,0.2-0.4,0.4
				C63,18.5,63.2,18.6,63.4,18.6z"/>
			<path class="st2" d="M63.4,18.2"/>
		</g>
		<g>
			<path class="st2" d="M67.1,18.6c0.2,0,0.4-0.2,0.4-0.4c0-0.2-0.2-0.4-0.4-0.4c-0.2,0-0.4,0.2-0.4,0.4
				C66.8,18.5,66.9,18.6,67.1,18.6z"/>
			<path class="st2" d="M67.1,18.2"/>
		</g>
		<g>
			<path class="st2" d="M63.4,22.8c0.2,0,0.4-0.2,0.4-0.4S63.6,22,63.4,22c-0.2,0-0.4,0.2-0.4,0.4S63.2,22.8,63.4,22.8z"/>
			<path class="st2" d="M63.4,22.4"/>
		</g>
		<g>
			<path class="st2" d="M67.1,22.8c0.2,0,0.4-0.2,0.4-0.4S67.4,22,67.1,22c-0.2,0-0.4,0.2-0.4,0.4S66.9,22.8,67.1,22.8z"/>
			<path class="st2" d="M67.1,22.4"/>
		</g>
		<path class="st2" d="M62.2,13.7h8.3v0.8h-3.7v0.5h3.7v0.6h-3.7v0.7h3.7v0.6h-8.2C62.8,16.1,62.9,14.6,62.2,13.7z"/>
		<polygon class="st2" points="64.5,11.8 66,11.8 65.3,14.5 		"/>
		<g>
			<polygon class="st2" points="65.2,68.6 65.9,69.4 65.2,70.3 64.4,69.4 			"/>
			<path class="st2" d="M65.2,69.4"/>
		</g>
	</g>
	<text transform="matrix(1 0 0 1 45.9409 118.0205)" class="st2 st3 st4">SEDAN 1999</text>
</g>
<g id="Layer_2">
	<g>
		<g>
			<path class="st2" d="M4.7,89.8v-1.4h4.2v1.8H8.4L4.7,89.8z M8.9,103.7v1.8H4.7v-1.4l3.8-0.4H8.9z M6.7,96.5c0-2.7,0-5.4-0.1-8.1
				h4.5C11,91,11,93.7,11,96.5v0.9c0,2.8,0,5.5,0.1,8.2H6.6c0.1-2.6,0.1-5.3,0.1-8.2V96.5z M8.9,104h3.1c3,0,4.8-2.6,4.8-7.1
				c0-4.6-1.8-7-4.8-7H8.9v-1.5h3.5c5.5,0,8.9,3.2,8.9,8.5c0,5.4-3.7,8.6-9.3,8.6H8.9V104z"/>
			<path class="st2" d="M23.7,89.8v-1.4h8.5v1.4l-3.9,0.4h-0.7L23.7,89.8z M33.7,103.6c2.3,0,3.7-1.6,3.7-5.5v-9.7h1.7v9.7
				c0,5.5-2.6,7.8-6.9,7.8c-3.8,0-6.6-1.9-6.6-6.9v-2.8c0-2.6,0-5.2-0.1-7.8h4.5C30,90.9,30,93.6,30,96.2v2
				C30,102.2,31.2,103.6,33.7,103.6z M37.8,90l-2.8-0.2v-1.4h6.2v1.4L38.6,90H37.8z"/>
			<path class="st2" d="M43.6,89.8v-1.4h4.2v1.8h-0.4L43.6,89.8z M47.8,103.7v1.8h-4.2v-1.4l3.8-0.4H47.8z M45.6,96.5
				c0-2.7,0-5.4-0.1-8.1H50c-0.1,2.6-0.1,5.3-0.1,8.1v0.9c0,2.8,0,5.5,0.1,8.2h-4.5c0.1-2.6,0.1-5.3,0.1-8.1V96.5z M54.1,88.4
				l1.9,1.5h-8.2v-1.5h9.1l0.2,4.5h-2.2L54.1,88.4z M53.5,97.4h-5.7v-1.5h5.7V97.4z M57.6,101l-0.2,4.5h-9.6V104h8.7l-1.9,1.5
				l0.8-4.5H57.6z M52.7,96.3l0.4-2.5h1.5v5.6h-1.5l-0.4-2.6V96.3z"/>
			<path class="st2" d="M59.8,89.8v-1.4h8.6v1.4l-3.9,0.4h-1L59.8,89.8z M64,103.7v1.8h-4.2v-1.4l3.8-0.4H64z M61.7,88.4h4.5
				c-0.1,2.6-0.1,5.3-0.1,8.1v1.4c0,2.3,0,5,0.1,7.7h-4.5c0.1-2.6,0.1-5.3,0.1-7.5v-1.5C61.8,93.8,61.8,91.1,61.7,88.4z M73.5,100.4
				l-0.3,5.1H64V104h8.4l-2,1.5l1-5.1H73.5z"/>
			<path class="st2" d="M75.7,89.8v-1.4h8.6v1.4l-3.9,0.4h-1L75.7,89.8z M79.9,103.7v1.8h-4.2v-1.4l3.8-0.4H79.9z M77.6,88.4h4.5
				c-0.1,2.6-0.1,5.3-0.1,8.1v1.4c0,2.3,0,5,0.1,7.7h-4.5c0.1-2.6,0.1-5.3,0.1-7.5v-1.5C77.7,93.8,77.7,91.1,77.6,88.4z M89.4,100.4
				l-0.3,5.1h-9.3V104h8.4l-2,1.5l1-5.1H89.4z"/>
			<path class="st2" d="M91.6,89.8v-1.4h4.2v1.8h-0.4L91.6,89.8z M95.8,103.7v1.8h-4.2v-1.4l3.8-0.4H95.8z M93.6,96.5
				c0-2.7,0-5.4-0.1-8.1H98c-0.1,2.6-0.1,5.3-0.1,8.1v0.9c0,2.8,0,5.5,0.1,8.2h-4.5c0.1-2.6,0.1-5.3,0.1-8.1V96.5z M102.1,88.4
				l1.9,1.5h-8.2v-1.5h9.1l0.2,4.5h-2.2L102.1,88.4z M101.5,97.4h-5.7v-1.5h5.7V97.4z M105.6,101l-0.2,4.5h-9.6V104h8.7l-1.9,1.5
				l0.8-4.5H105.6z M100.7,96.3l0.4-2.5h1.5v5.6h-1.5l-0.4-2.6V96.3z"/>
			<path class="st2" d="M107.7,104.1l2.8-0.4h0.7l3.3,0.4v1.4h-6.9V104.1z M109.1,89.3l1.5,0.7l-2.8-0.2v-1.4h5.9l9.3,12.8v4.3h-2.2
				L109.1,89.3z M109.9,88.4l1.7,1.4v15.7h-1.7V88.4z M118.3,88.4h6.9v1.4l-2.6,0.4h-0.7l-3.5-0.4V88.4z M121.3,88.4h1.7v17.1
				l-1.7-1.7V88.4z"/>
		</g>
	</g>
</g>
</svg>
