<?xml version="1.0" encoding="utf-8"?>
<!-- Generator: Adobe Illustrator 22.1.0, SVG Export Plug-In . SVG Version: 6.00 Build 0)  -->
<svg version="1.1" xmlns="http://www.w3.org/2000/svg" xmlns:xlink="http://www.w3.org/1999/xlink" x="0px" y="0px"
	 viewBox="0 0 231 182" style="enable-background:new 0 0 231 182;" xml:space="preserve">
<style type="text/css">
	.st0{fill:none;stroke:#FFFFFF;stroke-linecap:round;stroke-miterlimit:10;}
	.st1{fill:none;stroke:#FFFFFF;stroke-width:2;stroke-linecap:round;stroke-miterlimit:10;}
	.st2{fill:#FFFFFF;}
	.st3{font-family:'Gotham-Medium';}
	.st4{font-size:6px;}
</style>
<g id="Layer_1">
	<path class="st0" d="M131,44.1c22.6,5.7,39.2,26.1,39.2,50.4c0,1.5-0.1,3-0.2,4.5"/>
	<path class="st0" d="M66.4,99c-0.1-1.5-0.2-3-0.2-4.5c0-24.5,16.9-45,39.8-50.6"/>
	<path class="st0" d="M155.3,131c-9.4,9.6-22.5,15.5-37,15.5c-14.5,0-27.6-5.9-37-15.5"/>
	<path class="st1" d="M131,40c24.8,5.8,43.2,28,43.2,54.5c0,1.5-0.1,3-0.2,4.5"/>
	<path class="st1" d="M62.4,99c-0.1-1.5-0.2-3-0.2-4.5c0-26.7,18.7-49.1,43.7-54.6"/>
	<path class="st1" d="M160.7,131c-10.3,11.9-25.5,19.5-42.5,19.5c-17,0-32.2-7.6-42.5-19.5"/>
	<g>
		<path class="st2" d="M127.4,77.4v-7.3h0.6v-2.6h0.6c0-0.9,0.3-1.9,1.3-1.9v-0.8h-3.6L121,49.5H116l-5.4,15.3H107v0.8
			c0.9,0,1.3,0.9,1.3,1.9h0.6v2.6h0.6v7.3h0.3v12.9h-1.7V92c1.3,0,1.8,0.8,1.8,2.3h17c0-1.5,0.6-2.3,1.7-2.3v-1.7l-2.8,0l-12.7,0
			v-14c0,0-0.2-1.4,1.5-1.2c0,0,0.6-4,3.4-4c2.7,0,3,0.9,3.6,3.8c0,0,1.7,0,1.7,1.6c0,1.6,0,13.8,0,13.8l3.6,0.2l0-13.1L127.4,77.4z
			"/>
		<g>
			<rect x="112.9" y="83.8" class="st2" width="11" height="1.4"/>
			<path class="st2" d="M118.4,84.5"/>
		</g>
		<g>
			<rect x="115.6" y="85.2" class="st2" width="0.4" height="6"/>
			<path class="st2" d="M115.8,88.2"/>
		</g>
		<g>
			<rect x="120.8" y="85.2" class="st2" width="0.4" height="6"/>
			<path class="st2" d="M121,88.2"/>
		</g>
		<g>
			<rect x="118.2" y="85.2" class="st2" width="0.4" height="6"/>
			<path class="st2" d="M118.4,88.2"/>
		</g>
		<polygon class="st2" points="108.3,62.5 109.6,62.5 108.9,58 		"/>
		<polygon class="st2" points="127.3,62.5 128.6,62.5 127.9,58 		"/>
		<g>
			<rect x="118.3" y="30.9" class="st2" width="0.4" height="19"/>
			<path class="st2" d="M118.5,40.9"/>
		</g>
		<polygon class="st2" points="116.4,45.9 120.6,45.9 120,48.4 117.2,48.4 		"/>
		<polygon class="st2" points="117.7,42.5 119.3,42.5 118.5,45 		"/>
		<g>
			<polygon class="st2" points="120.6,36.1 120.5,35.9 116.3,40.5 116.5,40.7 			"/>
			<path class="st2" d="M118.5,38.3"/>
		</g>
		<g>
			<polygon class="st2" points="116.5,35.9 116.3,36.1 120.5,40.7 120.6,40.5 			"/>
			<path class="st2" d="M118.5,38.3"/>
		</g>
		<g>
			<path class="st2" d="M116.6,36.6c0.2,0,0.4-0.2,0.4-0.4c0-0.2-0.2-0.4-0.4-0.4c-0.2,0-0.4,0.2-0.4,0.4
				C116.3,36.5,116.4,36.6,116.6,36.6z"/>
			<path class="st2" d="M116.6,36.2"/>
		</g>
		<g>
			<path class="st2" d="M120.4,36.6c0.2,0,0.4-0.2,0.4-0.4c0-0.2-0.2-0.4-0.4-0.4c-0.2,0-0.4,0.2-0.4,0.4
				C120,36.5,120.2,36.6,120.4,36.6z"/>
			<path class="st2" d="M120.4,36.2"/>
		</g>
		<g>
			<path class="st2" d="M116.6,40.8c0.2,0,0.4-0.2,0.4-0.4s-0.2-0.4-0.4-0.4c-0.2,0-0.4,0.2-0.4,0.4S116.4,40.8,116.6,40.8z"/>
			<path class="st2" d="M116.6,40.4"/>
		</g>
		<g>
			<path class="st2" d="M120.4,40.8c0.2,0,0.4-0.2,0.4-0.4s-0.2-0.4-0.4-0.4c-0.2,0-0.4,0.2-0.4,0.4S120.2,40.8,120.4,40.8z"/>
			<path class="st2" d="M120.4,40.4"/>
		</g>
		<path class="st2" d="M115.5,31.7h8.3v0.8H120v0.5h3.7v0.6H120v0.7h3.7v0.6h-8.2C116,34.1,116.1,32.6,115.5,31.7z"/>
		<polygon class="st2" points="117.7,29.8 119.3,29.8 118.5,32.5 		"/>
		<g>
			<polygon class="st2" points="118.4,86.6 119.2,87.4 118.4,88.3 117.6,87.4 			"/>
			<path class="st2" d="M118.4,87.4"/>
		</g>
	</g>
	<text transform="matrix(1 0 0 1 99.043 136.0205)" class="st2 st3 st4">SEDAN 1995</text>
</g>
<g id="Layer_2">
	<g>
		<g>
			<path class="st2" d="M57.7,107.8v-1.4h4.2v1.8h-0.4L57.7,107.8z M61.9,121.7v1.8h-4.2v-1.4l3.8-0.4H61.9z M59.7,114.5
				c0-2.7,0-5.4-0.1-8.1h4.5c-0.1,2.6-0.1,5.3-0.1,8.1v0.9c0,2.8,0,5.5,0.1,8.2h-4.5c0.1-2.6,0.1-5.3,0.1-8.2V114.5z M61.9,122h3.1
				c3,0,4.8-2.6,4.8-7.1c0-4.6-1.8-7-4.8-7h-3.1v-1.5h3.5c5.5,0,8.9,3.2,8.9,8.5c0,5.4-3.7,8.6-9.3,8.6h-3.1V122z"/>
			<path class="st2" d="M76.7,107.8v-1.4h8.5v1.4l-3.9,0.4h-0.7L76.7,107.8z M86.7,121.6c2.3,0,3.7-1.6,3.7-5.5v-9.7h1.7v9.7
				c0,5.5-2.6,7.8-6.9,7.8c-3.8,0-6.6-1.9-6.6-6.9v-2.8c0-2.6,0-5.2-0.1-7.8h4.5c-0.1,2.6-0.1,5.2-0.1,7.8v2
				C83,120.2,84.2,121.6,86.7,121.6z M90.8,108l-2.8-0.2v-1.4h6.2v1.4l-2.7,0.2H90.8z"/>
			<path class="st2" d="M96.6,107.8v-1.4h4.2v1.8h-0.4L96.6,107.8z M100.8,121.7v1.8h-4.2v-1.4l3.8-0.4H100.8z M98.6,114.5
				c0-2.7,0-5.4-0.1-8.1h4.5c-0.1,2.6-0.1,5.3-0.1,8.1v0.9c0,2.8,0,5.5,0.1,8.2h-4.5c0.1-2.6,0.1-5.3,0.1-8.1V114.5z M107.1,106.4
				l1.9,1.5h-8.2v-1.5h9.1l0.2,4.5h-2.2L107.1,106.4z M106.5,115.4h-5.7v-1.5h5.7V115.4z M110.6,119l-0.2,4.5h-9.6V122h8.7l-1.9,1.5
				l0.8-4.5H110.6z M105.7,114.3l0.4-2.5h1.5v5.6h-1.5l-0.4-2.6V114.3z"/>
			<path class="st2" d="M112.8,107.8v-1.4h8.6v1.4l-3.9,0.4h-1L112.8,107.8z M117,121.7v1.8h-4.2v-1.4l3.8-0.4H117z M114.7,106.4
				h4.5c-0.1,2.6-0.1,5.3-0.1,8.1v1.4c0,2.3,0,5,0.1,7.7h-4.5c0.1-2.6,0.1-5.3,0.1-7.5v-1.5C114.8,111.8,114.8,109.1,114.7,106.4z
				 M126.5,118.4l-0.3,5.1H117V122h8.4l-2,1.5l1-5.1H126.5z"/>
			<path class="st2" d="M128.7,107.8v-1.4h8.6v1.4l-3.9,0.4h-1L128.7,107.8z M132.9,121.7v1.8h-4.2v-1.4l3.8-0.4H132.9z
				 M130.6,106.4h4.5c-0.1,2.6-0.1,5.3-0.1,8.1v1.4c0,2.3,0,5,0.1,7.7h-4.5c0.1-2.6,0.1-5.3,0.1-7.5v-1.5
				C130.7,111.8,130.7,109.1,130.6,106.4z M142.4,118.4l-0.3,5.1h-9.3V122h8.4l-2,1.5l1-5.1H142.4z"/>
			<path class="st2" d="M144.6,107.8v-1.4h4.2v1.8h-0.4L144.6,107.8z M148.8,121.7v1.8h-4.2v-1.4l3.8-0.4H148.8z M146.6,114.5
				c0-2.7,0-5.4-0.1-8.1h4.5c-0.1,2.6-0.1,5.3-0.1,8.1v0.9c0,2.8,0,5.5,0.1,8.2h-4.5c0.1-2.6,0.1-5.3,0.1-8.1V114.5z M155.1,106.4
				l1.9,1.5h-8.2v-1.5h9.1l0.2,4.5h-2.2L155.1,106.4z M154.5,115.4h-5.7v-1.5h5.7V115.4z M158.6,119l-0.2,4.5h-9.6V122h8.7l-1.9,1.5
				l0.8-4.5H158.6z M153.7,114.3l0.4-2.5h1.5v5.6h-1.5l-0.4-2.6V114.3z"/>
			<path class="st2" d="M160.7,122.1l2.8-0.4h0.7l3.3,0.4v1.4h-6.9V122.1z M162.1,107.3l1.5,0.7l-2.8-0.2v-1.4h5.9l9.3,12.8v4.3
				h-2.2L162.1,107.3z M162.9,106.4l1.7,1.4v15.7h-1.7V106.4z M171.3,106.4h6.9v1.4l-2.6,0.4h-0.7l-3.5-0.4V106.4z M174.3,106.4h1.7
				v17.1l-1.7-1.7V106.4z"/>
		</g>
	</g>
</g>
</svg>
