<svg width="19" height="13" viewBox="0 0 19 13" fill="none" xmlns="http://www.w3.org/2000/svg">
<path d="M9.80469 2.64844C9.52344 2.67969 9.08594 2.74219 8.80469 2.80469C8.92969 3.02344 9.02344 3.42969 9.05469 3.64844C9.05469 4.61719 8.24219 5.39844 7.30469 5.39844C7.05469 5.39844 6.64844 5.30469 6.46094 5.17969C6.36719 5.46094 6.30469 5.86719 6.30469 6.14844C6.30469 8.08594 7.86719 9.64844 9.80469 9.64844C11.7422 9.64844 13.3047 8.08594 13.3047 6.14844C13.3047 4.24219 11.7422 2.64844 9.80469 2.64844ZM18.6797 5.71094C16.9922 2.39844 13.6172 0.148438 9.80469 0.148438C5.96094 0.148438 2.58594 2.39844 0.898438 5.71094C0.835938 5.83594 0.804688 6.02344 0.804688 6.17969C0.804688 6.30469 0.835938 6.49219 0.898438 6.61719C2.58594 9.92969 5.96094 12.1484 9.80469 12.1484C13.6172 12.1484 16.9922 9.92969 18.6797 6.61719C18.7422 6.49219 18.7734 6.30469 18.7734 6.14844C18.7734 6.02344 18.7422 5.83594 18.6797 5.71094ZM9.80469 10.6484C6.71094 10.6484 3.86719 8.92969 2.36719 6.14844C3.86719 3.36719 6.71094 1.64844 9.80469 1.64844C12.8672 1.64844 15.7109 3.36719 17.2109 6.14844C15.7109 8.92969 12.8672 10.6484 9.80469 10.6484Z" fill="black"/>
</svg>
