<?xml version="1.0" encoding="UTF-8" standalone="no"?>
<svg width="64px" height="64px" viewBox="0 0 64 64" version="1.1" xmlns="http://www.w3.org/2000/svg" xmlns:xlink="http://www.w3.org/1999/xlink">
    <!-- Generator: Sketch 3.7.2 (28276) - http://www.bohemiancoding.com/sketch -->
    <title>fin-card-front-back</title>
    <desc>Created with Sketch.</desc>
    <defs></defs>
    <g id="64px-Line" stroke="none" stroke-width="1" fill="none" fill-rule="evenodd">
        <g id="fin-card-front-back"></g>
        <path d="M4,28 L4,56 C4,58.206 5.794,60 8,60 L50,60 C52.206,60 54,58.206 54,56 L54,28 C54,25.794 52.206,24 50,24 L8,24 C5.794,24 4,25.794 4,28 L4,28 Z M52,28 L52,56 C52,57.103 51.103,58 50,58 L8,58 C6.897,58 6,57.103 6,56 L6,28 C6,26.897 6.897,26 8,26 L50,26 C51.103,26 52,26.897 52,28 L52,28 Z" id="Shape" fill="#000000"></path>
        <path d="M13,42 L21,42 C22.542,42 24,40.542 24,39 L24,33 C24,31.458 22.542,30 21,30 L13,30 C11.458,30 10,31.458 10,33 L10,39 C10,40.542 11.458,42 13,42 L13,42 Z M12,39 L12,36 L16,36 L16,40 L13,40 C12.552,40 12,39.448 12,39 L12,39 Z M22,33 L22,39 C22,39.448 21.448,40 21,40 L18,40 L18,32 L21,32 C21.448,32 22,32.552 22,33 L22,33 Z M13,32 L16,32 L16,34 L12,34 L12,33 C12,32.552 12.552,32 13,32 L13,32 Z" id="Shape" fill="#000000"></path>
        <path d="M11,48 L17,48 C17.553,48 18,47.553 18,47 C18,46.447 17.553,46 17,46 L11,46 C10.447,46 10,46.447 10,47 C10,47.553 10.447,48 11,48 L11,48 Z" id="Shape" fill="#000000"></path>
        <path d="M20,47 C20,47.553 20.447,48 21,48 L27,48 C27.553,48 28,47.553 28,47 C28,46.447 27.553,46 27,46 L21,46 C20.447,46 20,46.447 20,47 L20,47 Z" id="Shape" fill="#000000"></path>
        <path d="M31,48 L37,48 C37.553,48 38,47.553 38,47 C38,46.447 37.553,46 37,46 L31,46 C30.447,46 30,46.447 30,47 C30,47.553 30.447,48 31,48 L31,48 Z" id="Shape" fill="#000000"></path>
        <path d="M41,48 L47,48 C47.553,48 48,47.553 48,47 C48,46.447 47.553,46 47,46 L41,46 C40.447,46 40,46.447 40,47 C40,47.553 40.447,48 41,48 L41,48 Z" id="Shape" fill="#000000"></path>
        <path d="M11,54 L27,54 C27.553,54 28,53.553 28,53 C28,52.447 27.553,52 27,52 L11,52 C10.447,52 10,52.447 10,53 C10,53.553 10.447,54 11,54 L11,54 Z" id="Shape" fill="#000000"></path>
        <path d="M39.588,5.148 C38.848,4.408 37.863,4 36.817,4 C35.769,4 34.785,4.408 34.059,5.135 L18.307,20.28 C17.91,20.663 17.897,21.296 18.28,21.694 C18.663,22.091 19.295,22.104 19.694,21.721 L35.46,6.563 C36.185,5.836 37.448,5.838 38.175,6.563 L39.835,8.223 L27.308,20.28 C26.91,20.663 26.898,21.297 27.281,21.694 C27.477,21.898 27.739,22.001 28.002,22.001 C28.252,22.001 28.501,21.908 28.695,21.722 L41.25,9.639 L45.824,14.213 L39.32,20.271 C38.916,20.647 38.893,21.28 39.27,21.684 C39.466,21.895 39.734,22.002 40.001,22.002 C40.245,22.002 40.49,21.913 40.683,21.733 L47.238,15.627 L57.439,25.827 C58.187,26.575 58.187,27.794 57.439,28.542 L55.793,30.188 C55.402,30.579 55.402,31.211 55.793,31.602 C55.988,31.797 56.244,31.895 56.5,31.895 C56.756,31.895 57.012,31.797 57.207,31.602 L58.853,29.956 C60.381,28.428 60.381,25.941 58.853,24.413 L39.588,5.148 L39.588,5.148 Z" id="Shape" fill="#000000"></path>
    </g>
</svg>