<?xml version="1.0" encoding="utf-8"?>
<!-- Generator: Adobe Illustrator 24.0.3, SVG Export Plug-In . SVG Version: 6.00 Build 0)  -->
<svg version="1.1" xmlns="http://www.w3.org/2000/svg" xmlns:xlink="http://www.w3.org/1999/xlink" x="0px" y="0px"
	 viewBox="0 0 64 64" style="enable-background:new 0 0 64 64;" xml:space="preserve">
<style type="text/css">
	.st0{display:none;}
	.st1{display:inline;}
	.st2{stroke:#000000;stroke-miterlimit:10;}
	.st3{stroke:#000000;stroke-width:1.5;stroke-miterlimit:10;}
	.st4{fill:none;stroke:#000000;stroke-width:2;stroke-linecap:round;stroke-linejoin:round;stroke-miterlimit:10;}
	.st5{font-family:'Roboto-Medium';}
	.st6{font-size:19.4226px;}
	.st7{font-family:'Roboto-Bold';}
	.st8{font-size:20.3927px;}
	.st9{letter-spacing:-1;}
</style>
<g id="Lager_2" class="st0">
	<g id="Layer_2" class="st1">
		<g id="_x34_4px-Line">
			<g id="gen-cog">
			</g>
			<path id="Shape" class="st2" d="M32,22.3c-5.3,0-9.7,4.3-9.7,9.7s4.3,9.7,9.7,9.7s9.7-4.3,9.7-9.7S37.3,22.3,32,22.3L32,22.3z
				 M32,39.3c-4,0-7.3-3.3-7.3-7.3s3.3-7.3,7.3-7.3s7.3,3.3,7.3,7.3S36,39.3,32,39.3L32,39.3z"/>
			<path id="Shape_1_" class="st2" d="M55.4,27.2h-3.3c-0.5-2.1-1.3-4.1-2.3-5.8l2-2c1.2-1.2,1.2-3.2,0-4.4l-2.7-2.7
				c-1.2-1.2-3.2-1.2-4.4,0l-2,2c-1.7-1-3.7-1.8-5.8-2.3V8.6c0-1.7-1.4-3.2-3.2-3.2h-3.3c-1.7,0-3.2,1.4-3.2,3.2v3.3
				c-2.1,0.5-4.1,1.3-5.8,2.3l-2-2c-1.2-1.2-3.2-1.2-4.4,0l-2.7,2.7c-1.2,1.2-1.2,3.2,0,4.4l2,2c-1,1.7-1.8,3.7-2.3,5.8H8.6
				c-1.7,0-3.2,1.4-3.2,3.2v3.3c0,1.7,1.4,3.2,3.2,3.2h3.3c0.5,2.1,1.3,4.1,2.3,5.8l-2,2c-1.2,1.2-1.2,3.2,0,4.4l2.7,2.7
				c1.2,1.2,3.2,1.2,4.4,0l2-2c1.7,1,3.7,1.8,5.8,2.3v3.3c0,1.7,1.4,3.2,3.2,3.2h3.3c1.7,0,3.2-1.4,3.2-3.2V52
				c2.1-0.5,4.1-1.3,5.8-2.3l2,2c1.2,1.2,3.2,1.2,4.4,0l2.7-2.7c0.6-0.6,0.9-1.4,0.9-2.2s-0.3-1.6-0.9-2.2l-2-2
				c1-1.7,1.8-3.7,2.3-5.8h3.3c1.7,0,3.2-1.4,3.2-3.2v-3.3C58.6,28.6,57.2,27.2,55.4,27.2L55.4,27.2z M56.2,33.7
				c0,0.4-0.3,0.7-0.7,0.7h-4.3c-0.6,0-1.1,0.4-1.2,1c-0.5,2.5-1.5,4.9-2.7,6.8c-0.3,0.5-0.3,1.1,0.1,1.5l2.7,2.7
				c0.1,0.1,0.2,0.3,0.2,0.5s-0.1,0.4-0.2,0.5l-2.7,2.7c-0.3,0.3-0.7,0.3-1,0l-2.7-2.7c-0.4-0.4-1-0.5-1.5-0.2
				c-1.8,1.2-4.3,2.2-6.8,2.7c-0.6,0.1-1,0.6-1,1.2v4.3c0,0.4-0.3,0.7-0.7,0.7h-3.3c-0.4,0-0.7-0.3-0.7-0.7v-4.3
				c0-0.6-0.4-1.1-1-1.2c-2.5-0.5-4.9-1.5-6.8-2.7c-0.2-0.1-0.4-0.2-0.7-0.2c-0.3,0-0.6,0.1-0.9,0.4l-2.7,2.7c-0.3,0.3-0.7,0.3-1,0
				l-2.7-2.7c-0.3-0.3-0.3-0.7,0-1l2.7-2.7c0.4-0.4,0.5-1,0.2-1.5c-1.2-1.8-2.2-4.3-2.7-6.8c-0.1-0.6-0.6-1-1.2-1H8.6
				c-0.4,0-0.7-0.3-0.7-0.7v-3.3c0-0.4,0.3-0.7,0.7-0.7h4.3c0.6,0,1.1-0.4,1.2-1c0.5-2.5,1.5-4.9,2.7-6.8c0.3-0.5,0.3-1.1-0.2-1.5
				l-2.7-2.7c-0.3-0.3-0.3-0.7,0-1l2.7-2.7c0.3-0.3,0.7-0.3,1,0l2.7,2.7c0.4,0.4,1,0.5,1.5,0.1c1.8-1.2,4.3-2.2,6.8-2.7
				c0.6-0.1,1-0.6,1-1.2V8.6c0-0.4,0.3-0.7,0.7-0.7h3.3c0.4,0,0.7,0.3,0.7,0.7v4.3c0,0.6,0.4,1.1,1,1.2c2.5,0.5,5,1.5,6.8,2.7
				c0.5,0.3,1.1,0.3,1.5-0.2l2.7-2.7c0.3-0.3,0.7-0.3,1,0l2.7,2.7c0.3,0.3,0.3,0.7,0,1l-2.7,2.7c-0.4,0.4-0.5,1-0.2,1.5
				c1.2,1.8,2.2,4.3,2.7,6.8c0.1,0.6,0.6,1,1.2,1h4.3c0.4,0,0.7,0.3,0.7,0.7L56.2,33.7L56.2,33.7z"/>
		</g>
	</g>
</g>
<g id="Guides" class="st0">
	<g id="Layer_1">
		<g id="Home" class="st1">
			<g id="gen-home">
				<path class="st3" d="M58.2,33.4c-0.2,0-0.5-0.1-0.7-0.3L32.1,7.8L6.8,33.1c-0.4,0.4-1,0.4-1.4,0s-0.4-1,0-1.4l26-26
					c0.4-0.4,1-0.4,1.4,0l26,26c0.4,0.4,0.4,1,0,1.4C58.7,33.3,58.4,33.4,58.2,33.4z"/>
				<path class="st3" d="M54.3,58.5H37c-0.5,0-1-0.4-1-1V43.1h-7.7v14.5c0,0.5-0.4,1-1,1H10c-0.5,0-1-0.4-1-1V33.4c0-0.5,0.4-1,1-1
					s1,0.4,1,1v23.1h15.4V42.1c0-0.5,0.4-1,1-1H37c0.5,0,1,0.4,1,1v14.5h15.4V33.4c0-0.5,0.4-1,1-1c0.5,0,1,0.4,1,1v24.1
					C55.3,58,54.8,58.5,54.3,58.5z"/>
				<path class="st3" d="M54.3,24.8c-0.5,0-1-0.4-1-1V12.2h-5.8v3.9c0,0.5-0.4,1-1,1s-1-0.4-1-1v-4.8c0-0.5,0.4-1,1-1h7.7
					c0.5,0,1,0.4,1,1v12.5C55.3,24.3,54.8,24.8,54.3,24.8z"/>
			</g>
		</g>
		<g id="Editions" class="st1">
			<g id="dri-cup-tea">
				<path d="M54.9,39.7h-4.8c-0.5,0-1-0.4-1-1c0-0.5,0.4-1,1-1h4.8c2.1,0,3.9-1.7,3.9-3.9v-3.9c0-2.1-1.7-3.9-3.9-3.9h-4.8
					c-0.5,0-1-0.4-1-1s0.4-1,1-1h4.8c3.2,0,5.8,2.6,5.8,5.8v3.9C60.7,37.1,58.1,39.7,54.9,39.7z"/>
				<path d="M31.8,59c-10.6,0-19.3-8.6-19.3-19.3V25.2c0-0.5,0.4-1,1-1h36.6c0.5,0,1,0.4,1,1v14.5C51.1,50.3,42.4,59,31.8,59z
					 M14.5,26.2v13.5c0,9.6,7.8,17.3,17.3,17.3s17.3-7.8,17.3-17.3V26.2H14.5z"/>
				<path d="M57.8,59h-52c-0.5,0-1-0.4-1-1c0-0.5,0.4-1,1-1h52c0.5,0,1,0.4,1,1C58.8,58.5,58.4,59,57.8,59z"/>
				<path d="M22.2,20.4c-0.5,0-1-0.4-1-1s0.4-1,1-1c1.1,0,1.9-0.9,1.9-1.9c0-0.8-0.6-1.4-1.7-2.3c-0.3-0.3-0.6-0.6-1-0.9
					c-0.2-0.2-0.5-0.5-0.8-0.7c-1.1-1-2.4-2.2-2.4-3.8c0-2.1,1.7-3.9,3.9-3.9c0.5,0,1,0.4,1,1s-0.4,1-1,1c-1.1,0-1.9,0.9-1.9,1.9
					c0,0.8,0.9,1.6,1.8,2.4c0.3,0.3,0.6,0.5,0.8,0.8c0.3,0.3,0.6,0.6,0.9,0.8c1.1,1,2.3,2.1,2.3,3.7C26,18.7,24.3,20.4,22.2,20.4z"
					/>
				<path d="M31.8,20.4c-0.5,0-1-0.4-1-1s0.4-1,1-1c1.1,0,1.9-0.9,1.9-1.9c0-0.8-0.6-1.4-1.7-2.3c-0.3-0.3-0.6-0.6-1-0.9
					c-0.2-0.2-0.5-0.5-0.8-0.7c-1.1-1-2.4-2.2-2.4-3.8C28,6.7,29.7,5,31.8,5c0.5,0,1,0.4,1,1s-0.4,1-1,1c-1.1,0-1.9,0.9-1.9,1.9
					c0,0.8,0.9,1.6,1.8,2.4c0.3,0.3,0.6,0.5,0.8,0.8c0.3,0.3,0.6,0.6,0.9,0.8c1.1,1,2.3,2.1,2.3,3.7C35.7,18.7,33.9,20.4,31.8,20.4z
					"/>
				<path d="M41.5,20.4c-0.5,0-1-0.4-1-1s0.4-1,1-1c1.1,0,1.9-0.9,1.9-1.9c0-0.8-0.6-1.4-1.7-2.3c-0.3-0.3-0.6-0.6-1-0.9
					c-0.2-0.2-0.5-0.5-0.8-0.7c-1.1-1-2.4-2.2-2.4-3.8c0-2.1,1.7-3.9,3.9-3.9c0.5,0,1,0.4,1,1s-0.4,1-1,1c-1.1,0-1.9,0.9-1.9,1.9
					c0,0.8,0.9,1.6,1.8,2.4c0.3,0.3,0.6,0.5,0.8,0.8c0.3,0.3,0.6,0.6,0.9,0.8c1.1,1,2.3,2.1,2.3,3.7C45.3,18.7,43.6,20.4,41.5,20.4z
					"/>
			</g>
		</g>
		<g id="Search" class="st1">
			<g id="ios-search_1_">
				<path d="M27.8,45.7c-10.1,0-18.3-8.2-18.3-18.3S17.8,9.1,27.8,9.1s18.3,8.2,18.3,18.3S37.9,45.7,27.8,45.7z M27.8,11
					c-9,0-16.4,7.3-16.4,16.4s7.3,16.4,16.4,16.4s16.4-7.3,16.4-16.4S36.9,11,27.8,11z"/>
				<rect x="45" y="36" transform="matrix(0.7071 -0.7071 0.7071 0.7071 -19.136 46.8145)" width="3.9" height="21"/>
			</g>
		</g>
		<g id="Latest_news" class="st1">
			<g id="gen-heart-rate-2">
				<path d="M36.9,54.1L36.9,54.1c-0.5,0-0.9-0.3-0.9-0.8l-7.7-37.8l-5.8,28.2c-0.1,0.4-0.4,0.7-0.9,0.8c-0.4,0-0.8-0.2-1-0.6
					l-2.7-7.1H4.1c-0.5,0-1-0.4-1-1c0-0.5,0.4-1,1-1h14.5c0.4,0,0.8,0.2,0.9,0.6l1.7,4.6l6.1-29.5c0.1-0.4,0.5-0.8,0.9-0.8l0,0
					c0.5,0,0.9,0.3,0.9,0.8L37,49l5.7-21.1c0.1-0.4,0.5-0.7,0.9-0.7s0.8,0.2,0.9,0.6l2.7,7.1H60c0.5,0,1,0.4,1,1c0,0.5-0.4,1-1,1
					H46.5c-0.4,0-0.8-0.2-0.9-0.6l-1.8-4.9l-6,22.2C37.7,53.8,37.3,54.1,36.9,54.1z"/>
			</g>
		</g>
		<g id="Hamburger" class="st1">
			<g id="ui-menu-circle_2_">
				<path d="M31.8,58c-14.3,0-26-11.7-26-26s11.7-26,26-26s26,11.7,26,26S46.2,58,31.8,58z M31.8,7.9C18.5,7.9,7.7,18.7,7.7,32
					s10.8,24.1,24.1,24.1S55.9,45.3,55.9,32S45.1,7.9,31.8,7.9z"/>
				<path d="M45.3,23.3h-27c-0.5,0-1-0.4-1-1s0.4-1,1-1h27c0.5,0,1,0.4,1,1S45.8,23.3,45.3,23.3z"/>
				<path d="M45.3,32.9h-27c-0.5,0-1-0.4-1-1c0-0.5,0.4-1,1-1h27c0.5,0,1,0.4,1,1C46.3,32.5,45.8,32.9,45.3,32.9z"/>
				<path d="M45.3,42.6h-27c-0.5,0-1-0.4-1-1c0-0.5,0.4-1,1-1h27c0.5,0,1,0.4,1,1C46.3,42.1,45.8,42.6,45.3,42.6z"/>
			</g>
		</g>
		<g id="Textsize" class="st1">
			<g id="typ-caps-small">
				<polyline class="st4" points="6,22.4 6,16.3 30.5,16.3 30.5,22.4 				"/>
				<path class="st4" d="M18.2,44.8c0,2.3,1.8,4.1,4.1,4.1h-8.2C16.4,48.9,18.2,47.1,18.2,44.8V16.3"/>
				<path class="st4" d="M24.3,16.3"/>
				<path class="st4" d="M6,19.4c0-1.7,1.4-3.1,3.1-3.1"/>
				<path class="st4" d="M30.5,19.4c0-1.7-1.4-3.1-3.1-3.1"/>
				<polyline class="st4" points="38.6,32.6 38.6,26.5 59,26.5 59,32.6 				"/>
				<path class="st4" d="M48.8,44.8c0,2.3,1.8,4.1,4.1,4.1h-8.2C47,48.9,48.8,47.1,48.8,44.8V26.5"/>
				<path class="st4" d="M52.9,26.5"/>
				<path class="st4" d="M38.6,29.6c0-1.7,1.4-3.1,3.1-3.1"/>
				<path class="st4" d="M59,29.6c0-1.7-1.4-3.1-3.1-3.1"/>
			</g>
		</g>
		<g id="Text-to-speech" class="st1">
			<g id="mus-vol-high_2_">
				<path class="st4" d="M34.6,10c-0.4,0-0.8,0.1-1.1,0.4L17,24.1h-6.2c-1.5,0-2.6,1.2-2.6,2.6v10.6c0,1.5,1.2,2.6,2.6,2.6H17
					l16.5,13.7c0.3,0.2,0.7,0.4,1.1,0.4c1,0,1.8-0.8,1.8-1.8V11.8C36.4,10.8,35.6,10,34.6,10z"/>
				<path class="st4" d="M36.4,40.6c3.1-1.6,5.3-4.9,5.3-8.6s-2.1-7-5.3-8.6"/>
				<path class="st4" d="M48.9,47.2c4.2-3.7,6.8-9.1,6.8-15.2c0-6-2.6-11.4-6.8-15.1"/>
				<path class="st4" d="M43.9,42.2c2.9-2.4,4.8-6.1,4.8-10.2s-1.9-7.7-4.8-10.1"/>
			</g>
		</g>
	</g>
</g>
<g id="Profil" class="st0">
	<g class="st1">
		<path d="M32.5,54.8c-13.2,0-24-10.8-24-24s10.8-24,24-24c13.2,0,24,10.8,24,24S45.7,54.8,32.5,54.8z M32.5,9.2
			c-11.9,0-21.7,9.7-21.7,21.7s9.7,21.7,21.7,21.7s21.7-9.7,21.7-21.7S44.4,9.2,32.5,9.2z"/>
		<circle cx="32.5" cy="25.1" r="7.6"/>
		<ellipse cx="32.5" cy="43.9" rx="14.6" ry="8.7"/>
	</g>
</g>
<g id="Kundservice" class="st0">
	<g class="st1">
		<path d="M10.3,54.2l-1.2-1.1c2.7-5.2,1.7-6.8,1.7-6.8c-2.5-2.8-3.8-6.4-3.8-10.1c0-8.4,6.9-15.3,15.3-15.3s15.3,6.9,15.3,15.3
			c0,8.4-6.9,15.3-15.3,15.3c-2,0-3.9-0.4-5.7-1.1L10.3,54.2z M22.3,22.5c-7.5,0-13.6,6.1-13.6,13.6c0,3.3,1.2,6.6,3.4,9
			c0.3,0.3,1.3,1.9-0.3,6.1l4.2-2.6l0.8-0.1c1.7,0.8,3.6,1.1,5.5,1.1c7.5,0,13.6-6.1,13.6-13.6C35.9,28.6,29.8,22.5,22.3,22.5z"/>
		<path d="M54.2,42.9L48,39.1c-1.8,0.7-3.7,1.1-5.7,1.1c-0.5,0-0.8-0.4-0.8-0.8s0.4-0.8,0.8-0.8c1.9,0,3.7-0.4,5.5-1.1l0.8,0.1
			l4.2,2.6c-1.6-4.2-0.6-5.8-0.3-6.1c2.2-2.5,3.5-5.7,3.5-9.1c0-7.5-6.1-13.6-13.6-13.6c-5.1,0-9.7,2.8-12.1,7.3
			c-0.2,0.4-0.7,0.6-1.1,0.4c-0.4-0.2-0.6-0.7-0.4-1.1c2.7-5,7.9-8.2,13.6-8.2c8.4,0,15.3,6.9,15.3,15.3c0,3.8-1.4,7.4-3.9,10.2
			c0,0,0,0,0,0c0,0-0.9,1.7,1.7,6.8L54.2,42.9z"/>
		<text transform="matrix(1 0 0 1 17.7974 43.415)" class="st5 st6">?</text>
		<text transform="matrix(1 0 0 1 36.7236 26.3018)" class="st7 st8 st9">...</text>
	</g>
</g>
<g id="Epaper">
	<g>
		<path d="M26.4,27.6l-0.6,0l-8.1-4.7l0.1-1.1l8.3-3.2l0.5,0l8.1,4.3l0,1.1L26.4,27.6z M19.5,22.4l6.7,3.9l6.9-3l-6.7-3.6L19.5,22.4
			z"/>
		<path d="M45.1,29.9c-0.1,0-0.2,0-0.3-0.1l-7.5-4.1c-0.3-0.2-0.4-0.5-0.2-0.8c0.2-0.3,0.5-0.4,0.8-0.2l7.5,4.1
			c0.3,0.2,0.4,0.5,0.2,0.8C45.5,29.8,45.3,29.9,45.1,29.9z"/>
		<path d="M40.5,31.3c-0.1,0-0.2,0-0.3-0.1l-7.5-4.1c-0.3-0.2-0.4-0.5-0.2-0.8c0.2-0.3,0.5-0.4,0.8-0.2l7.5,4.1
			c0.3,0.2,0.4,0.5,0.2,0.8C40.9,31.2,40.7,31.3,40.5,31.3z"/>
		<path d="M36.6,33.4c-0.1,0-0.2,0-0.3-0.1l-7.5-4.1c-0.3-0.2-0.4-0.5-0.2-0.8c0.2-0.3,0.5-0.4,0.8-0.2l7.5,4.1
			c0.3,0.2,0.4,0.5,0.2,0.8C37,33.3,36.8,33.4,36.6,33.4z"/>
		<path d="M33.5,36.3c-0.1,0-0.2,0-0.3-0.1L13,25c-0.3-0.2-0.4-0.5-0.2-0.8c0.2-0.3,0.5-0.4,0.8-0.2l20.2,11.2
			c0.3,0.2,0.4,0.5,0.2,0.8C34,36.2,33.8,36.3,33.5,36.3z"/>
		<path d="M30.9,39.5c-0.1,0-0.2,0-0.3-0.1L10.3,28.2C10,28,9.9,27.6,10,27.3c0.2-0.3,0.5-0.4,0.8-0.2l20.4,11.3
			c0.3,0.2,0.4,0.5,0.2,0.8C31.4,39.4,31.2,39.5,30.9,39.5z"/>
		<path d="M36.9,47.9c-1,0-1.9-0.2-2.6-0.5c-0.2-0.1-0.5-0.3-0.7-0.5C10.4,35.6,7.5,31.5,7.3,31l-0.1-0.2c-0.5-2-0.3-3.8,0.8-5.6
			c4.1-6.6,18.2-9.6,18.8-9.7l0.5,0.1L55.6,29l-0.1,1.5C49.5,32,34.1,37.4,34.1,44c0,0.8,0.2,1.3,0.5,1.5c0.1,0,0.1,0.1,0.2,0.1
			c0.1,0.1,0.3,0.2,0.3,0.3c0,0,0,0,0,0c3.7,1.9,15.5-4.1,18.6-6.4c0.6-0.4,2-1.4,2.2-2.6c0.1-0.5,0-0.9-0.3-1.3
			c-0.6-0.8-6.6,1.2-14.9,6.5c-0.4,0.2-0.9,0.1-1.1-0.3c-0.2-0.4-0.1-0.9,0.3-1.1c4.4-2.8,15-9,17.1-6.1c0.6,0.8,0.8,1.7,0.6,2.6
			c-0.4,2.1-2.6,3.5-2.9,3.6C52.7,42.3,42.8,47.9,36.9,47.9z M8.8,30.3c0.4,0.6,4,4.5,23.7,14.2c0-0.2,0-0.3,0-0.5
			c0-7.6,14.8-12.8,20.4-14.5l-26-12.3c-1.9,0.4-14,3.3-17.4,8.9C8.6,27.4,8.4,28.8,8.8,30.3z"/>
		<path d="M56.2,36c-0.1,0-0.3,0-0.4-0.1l-6.5-3.3c-0.4-0.2-0.6-0.7-0.4-1.1c0.2-0.4,0.7-0.6,1.1-0.4l6.5,3.3
			c0.4,0.2,0.6,0.7,0.4,1.1C56.8,35.8,56.5,36,56.2,36z"/>
	</g>
</g>
<g id="Menu_close" class="st0">
	<path class="st1" d="M52.8,14L14.1,52.7c-0.6,0.6-1.6,0.6-2.2,0l-0.8-0.8c-0.6-0.6-0.6-1.6,0-2.2L49.9,11c0.6-0.6,1.6-0.6,2.2,0
		l0.8,0.8C53.4,12.4,53.4,13.4,52.8,14z"/>
	<path class="st1" d="M49.9,52.7L11.2,14c-0.6-0.6-0.6-1.6,0-2.2L12,11c0.6-0.6,1.6-0.6,2.2,0l38.7,38.7c0.6,0.6,0.6,1.6,0,2.2
		L52,52.7C51.4,53.2,50.4,53.2,49.9,52.7z"/>
</g>
<g id="Menu" class="st0">
	<g class="st1">
		<path d="M56.1,19.9H8.9c-0.8,0-1.5-0.7-1.5-1.5v-1.2c0-0.8,0.7-1.5,1.5-1.5h47.1c0.8,0,1.5,0.7,1.5,1.5v1.2
			C57.6,19.2,56.9,19.9,56.1,19.9z"/>
		<path d="M56.1,34H8.9c-0.8,0-1.5-0.7-1.5-1.5v-1.2c0-0.8,0.7-1.5,1.5-1.5h47.1c0.8,0,1.5,0.7,1.5,1.5v1.2
			C57.6,33.3,56.9,34,56.1,34z"/>
		<path d="M56.1,48H8.9c-0.8,0-1.5-0.7-1.5-1.5v-1.2c0-0.8,0.7-1.5,1.5-1.5h47.1c0.8,0,1.5,0.7,1.5,1.5v1.2
			C57.6,47.3,56.9,48,56.1,48z"/>
	</g>
</g>
<g id="Search_1_" class="st0">
	<g class="st1">
		<path d="M27.2,46.6c-10.5,0-19-8.5-19-19s8.5-19,19-19s19,8.5,19,19S37.7,46.6,27.2,46.6z M27.2,10.9c-9.2,0-16.7,7.5-16.7,16.7
			S18,44.3,27.2,44.3c9.2,0,16.7-7.5,16.7-16.7S36.4,10.9,27.2,10.9z"/>
		<rect x="44.9" y="36.4" transform="matrix(0.7071 -0.7071 0.7071 0.7071 -18.7787 47.3586)" width="5.8" height="19.8"/>
	</g>
</g>
</svg>
