<svg xmlns="http://www.w3.org/2000/svg" xmlns:xlink="http://www.w3.org/1999/xlink" preserveAspectRatio="xMidYMid" width="20" height="20" viewBox="0 -6 20 20">
  <defs>
    <style>
      .cls-1 {
        fill: #6d7573;
        fill-rule: evenodd;
      }
    </style>
  </defs>
  <path d="M19.936,13.149 C19.984,13.025 20.008,12.901 20.008,12.752 L20.008,1.248 C20.008,1.125 19.984,1.001 19.936,0.877 L13.416,6.666 L19.936,13.149 ZM10.000,8.052 L11.720,6.617 L12.579,5.875 L19.148,0.060 C19.028,0.036 18.933,0.011 18.813,0.011 L1.187,0.011 C1.091,0.011 0.972,0.036 0.852,0.060 L7.421,5.875 L8.280,6.617 L10.000,8.052 ZM18.813,13.989 C18.909,13.989 19.028,13.964 19.124,13.940 L12.556,7.384 L10.000,9.536 L7.469,7.384 L0.876,13.940 C0.972,13.964 1.091,13.989 1.187,13.989 L18.813,13.989 ZM0.064,0.877 C0.016,1.001 -0.007,1.125 -0.007,1.248 L-0.007,12.752 C-0.007,12.901 0.016,13.025 0.064,13.149 L6.585,6.666 L0.064,0.877 Z" class="cls-1"/>
</svg>
