<?xml version="1.0" encoding="utf-8"?><svg version="1.1" id="WhatsApp_logo" xmlns="http://www.w3.org/2000/svg" xmlns:xlink="http://www.w3.org/1999/xlink" x="0px" y="0px" width="1219.547px" height="1225.016px" viewBox="0 0 1219.547 1225.016" enable-background="new 0 0 1219.547 1225.016" xml:space="preserve"><path fill="#E0E0E0" d="M1041.858,178.02C927.206,63.289,774.753,0.07,612.325,0C277.617,0,5.232,272.298,5.098,606.991	c-0.039,106.986,27.915,211.42,81.048,303.476L0,1225.016l321.898-84.406c88.689,48.368,188.547,73.855,290.166,73.896h0.258	c-0.005,0-0.009,0,0.003,0c334.654,0,607.08-272.346,607.222-607.023C1219.603,445.275,1156.495,292.759,1041.858,178.02z M612.325,1111.983h-0.197c-90.578-0.048-179.402-24.366-256.878-70.339l-18.438-10.93l-191.021,50.083l51-186.176l-12.013-19.087	c-50.525-80.336-77.198-173.175-77.16-268.504c0.111-278.186,226.507-504.503,504.898-504.503	c134.812,0.056,261.519,52.604,356.814,147.965c95.289,95.36,147.728,222.128,147.688,356.948	C1116.9,885.635,890.496,1111.983,612.325,1111.983z"/><linearGradient id="SVGID_1_" gradientUnits="userSpaceOnUse" x1="609.77" y1="1190.1143" x2="609.77" y2="21.0835"><stop offset="0" style="stop-color:#20B038"/><stop offset="1" style="stop-color:#60D66A"/></linearGradient><path fill="url(#SVGID_1_)" d="M27.875,1190.114l82.211-300.18c-50.719-87.852-77.391-187.523-77.359-289.602	c0.133-319.398,260.078-579.25,579.469-579.25c155.016,0.07,300.508,60.398,409.898,169.891	c109.414,109.492,169.633,255.031,169.57,409.812c-0.133,319.406-260.094,579.281-579.445,579.281c-0.023,0,0.016,0,0,0h-0.258	c-96.977-0.031-192.266-24.375-276.898-70.5L27.875,1190.114z"/><g><g><path fill-rule="evenodd" clip-rule="evenodd" fill="#FFFFFF" d="M462.273,349.294c-11.234-24.977-23.062-25.477-33.75-25.914	c-8.742-0.375-18.75-0.352-28.742-0.352c-10,0-26.25,3.758-39.992,18.766c-13.75,15.008-52.5,51.289-52.5,125.078	c0,73.797,53.75,145.102,61.242,155.117c7.5,10,103.758,166.266,256.203,226.383c126.695,49.961,152.477,40.023,179.977,37.523	s88.734-36.273,101.234-71.297c12.5-35.016,12.5-65.031,8.75-71.305c-3.75-6.25-13.75-10-28.75-17.5	s-88.734-43.789-102.484-48.789s-23.75-7.5-33.75,7.516c-10,15-38.727,48.773-47.477,58.773c-8.75,10.023-17.5,11.273-32.5,3.773	c-15-7.523-63.305-23.344-120.609-74.438c-44.586-39.75-74.688-88.844-83.438-103.859c-8.75-15-0.938-23.125,6.586-30.602	c6.734-6.719,15-17.508,22.5-26.266c7.484-8.758,9.984-15.008,14.984-25.008c5-10.016,2.5-18.773-1.25-26.273	S475.609,378.95,462.273,349.294z"/></g></g><path fill="#FFFFFF" d="M1036.898,176.091C923.562,62.677,772.859,0.185,612.297,0.114c-330.867,0-600.125,269.172-600.258,600.023	C12,705.896,39.633,809.13,92.156,900.13L7,1211.067l318.203-83.438c87.672,47.812,186.383,73.008,286.836,73.047h0.255	c-0.005,0-0.009,0,0.003,0c330.812,0,600.109-269.219,600.25-600.055C1212.602,440.278,1150.219,289.513,1036.898,176.091z M612.297,1099.333h-0.195c-89.539-0.047-177.344-24.086-253.93-69.531l-18.227-10.805l-188.828,49.508l50.414-184.039	l-11.875-18.867c-49.945-79.414-76.312-171.188-76.273-265.422c0.109-274.992,223.906-498.711,499.102-498.711	c133.266,0.055,258.516,52,352.719,146.266c94.195,94.266,146.031,219.578,145.992,352.852	C1111.078,875.583,887.273,1099.333,612.297,1099.333z"/></svg>