<svg xmlns="http://www.w3.org/2000/svg" xmlns:xlink="http://www.w3.org/1999/xlink" preserveAspectRatio="xMidYMid" width="17" height="15" viewBox="0 0 17 15">
  <defs>
    <style>
      .cls-1 {
        fill: #24afef;
        fill-rule: evenodd;
      }
    </style>
  </defs>
  <path d="M11.551,-0.006 C12.902,-0.030 13.621,0.504 14.308,1.183 C14.890,1.128 15.648,0.775 16.094,0.528 C16.238,0.442 16.383,0.357 16.528,0.272 C16.273,1.020 15.927,1.605 15.396,2.051 C15.278,2.149 15.161,2.282 15.014,2.343 C15.014,2.346 15.014,2.351 15.014,2.354 C15.770,2.345 16.394,1.974 16.987,1.773 C16.987,1.776 16.987,1.779 16.987,1.783 C16.676,2.320 16.254,2.866 15.805,3.256 C15.623,3.413 15.441,3.571 15.260,3.726 C15.270,4.595 15.248,5.426 15.099,6.160 C14.228,10.411 11.920,13.297 8.268,14.533 C6.956,14.977 4.837,15.158 3.334,14.753 C2.589,14.554 1.916,14.327 1.284,14.027 C0.933,13.858 0.608,13.679 0.297,13.473 C0.195,13.404 0.093,13.339 -0.009,13.270 C0.330,13.282 0.726,13.385 1.105,13.318 C1.448,13.256 1.784,13.272 2.100,13.197 C2.889,13.007 3.590,12.759 4.193,12.377 C4.486,12.193 4.929,11.972 5.137,11.704 C4.745,11.712 4.390,11.613 4.100,11.503 C2.971,11.069 2.315,10.274 1.888,9.078 C2.230,9.119 3.214,9.215 3.444,9.006 C3.014,8.980 2.600,8.709 2.305,8.508 C1.397,7.891 0.657,6.857 0.663,5.266 C0.782,5.325 0.901,5.387 1.020,5.449 C1.248,5.552 1.480,5.611 1.752,5.670 C1.866,5.694 2.096,5.769 2.228,5.715 C2.222,5.715 2.217,5.715 2.211,5.715 C2.035,5.495 1.749,5.346 1.573,5.108 C0.991,4.322 0.445,3.112 0.790,1.672 C0.878,1.306 1.017,0.984 1.165,0.685 C1.170,0.688 1.176,0.692 1.182,0.693 C1.249,0.849 1.401,0.961 1.496,1.092 C1.794,1.490 2.161,1.851 2.534,2.168 C3.808,3.251 4.954,3.916 6.796,4.407 C7.263,4.533 7.803,4.629 8.361,4.629 C8.205,4.133 8.255,3.331 8.378,2.851 C8.689,1.644 9.363,0.773 10.352,0.310 C10.588,0.197 10.851,0.117 11.126,0.050 C11.268,0.032 11.409,0.014 11.551,-0.006 Z" class="cls-1"/>
</svg>
