<svg xmlns="http://www.w3.org/2000/svg" xmlns:xlink="http://www.w3.org/1999/xlink" preserveAspectRatio="xMidYMid" width="19" height="19" viewBox="0 0 19 19">
  <defs>
    <style>
      .cls-1 {
        fill: #1077b5;
        fill-rule: evenodd;
      }
    </style>
  </defs>
  <path d="M0.311,6.302 L4.251,6.302 L4.251,18.989 L0.311,18.989 L0.311,6.302 ZM2.281,-0.005 C3.540,-0.005 4.563,1.019 4.563,2.280 C4.563,3.542 3.540,4.568 2.281,4.568 C1.019,4.568 -0.001,3.542 -0.001,2.280 C-0.001,1.019 1.019,-0.005 2.281,-0.005 M6.720,18.989 L10.656,18.989 L10.656,12.712 C10.656,11.058 10.969,9.455 13.018,9.455 C15.036,9.455 15.065,11.347 15.065,12.819 L15.065,18.989 L18.998,18.989 L18.998,12.030 C18.998,8.611 18.262,5.985 14.278,5.985 C12.362,5.985 11.077,7.037 10.551,8.035 L10.498,8.035 L10.498,6.302 L6.720,6.302 L6.720,18.989 Z" class="cls-1"/>
</svg>
