<svg xmlns="http://www.w3.org/2000/svg" xmlns:xlink="http://www.w3.org/1999/xlink" preserveAspectRatio="xMidYMid" width="17" height="17" viewBox="0 0 17 17">
  <defs>
    <style>
      .cls-1 {
        fill: #3f5c95;
        fill-rule: evenodd;
      }
    </style>
  </defs>
  <path d="M16.059,0.004 L0.942,0.004 C0.423,0.004 0.004,0.423 0.004,0.941 L0.004,16.059 C0.004,16.577 0.423,16.997 0.942,16.997 L9.080,16.997 L9.080,10.417 L6.866,10.417 L6.866,7.851 L9.080,7.851 L9.080,5.960 C9.080,3.765 10.420,2.569 12.378,2.569 C13.316,2.569 14.122,2.639 14.357,2.671 L14.357,4.963 L12.999,4.965 C11.934,4.965 11.728,5.470 11.728,6.215 L11.728,7.851 L14.268,7.851 L13.937,10.417 L11.728,10.417 L11.728,16.997 L16.059,16.997 C16.576,16.997 16.996,16.577 16.996,16.059 L16.996,0.941 C16.996,0.423 16.576,0.004 16.059,0.004 Z" class="cls-1"/>
</svg>
