<?xml version="1.0" encoding="utf-8"?>
<!-- Generator: Adobe Illustrator 24.0.3, SVG Export Plug-In . SVG Version: 6.00 Build 0)  -->
<svg version="1.1" xmlns="http://www.w3.org/2000/svg" xmlns:xlink="http://www.w3.org/1999/xlink" x="0px" y="0px"
	 viewBox="0 0 64 64" style="enable-background:new 0 0 64 64;" xml:space="preserve">
<style type="text/css">
	.st0{display:none;}
	.st1{display:inline;}
</style>
<g id="Lager_3" class="st0">
	<g class="st1">
		<polygon points="28.3,55.6 9.2,46.3 9.2,10.1 28.3,19.4 		"/>
		<path d="M39.9,46.3H9.2c-0.6,0-1.2-0.5-1.2-1.2v-35C8,9.5,8.5,9,9.2,9h30.7c0.6,0,1.2,0.5,1.2,1.2v7.6c0,0.6-0.5,1.2-1.2,1.2
			c-0.6,0-1.2-0.5-1.2-1.2v-6.4H10.3V44h28.4V31.8c0-0.6,0.5-1.2,1.2-1.2c0.6,0,1.2,0.5,1.2,1.2v13.4C41,45.8,40.5,46.3,39.9,46.3z"
			/>
		<path d="M54.8,26.2H34.3c-1,0-1.7-0.8-1.7-1.7s0.8-1.7,1.7-1.7h16.3l-5.9-5.9c-0.7-0.7-0.7-1.8,0-2.5s1.8-0.7,2.5,0l8.9,8.9
			c0.5,0.5,0.6,1.2,0.4,1.9S55.5,26.2,54.8,26.2z"/>
		<path d="M45.9,35.1c-0.4,0-0.9-0.2-1.2-0.5c-0.7-0.7-0.7-1.8,0-2.5l8.9-8.9c0.7-0.7,1.8-0.7,2.5,0s0.7,1.8,0,2.5l-8.9,8.9
			C46.8,34.9,46.4,35.1,45.9,35.1z"/>
	</g>
</g>
<g id="Lager_2">
	<path d="M47.6,51.5h-32c-0.7,0-1.2-0.5-1.2-1.2V13.7c0-0.7,0.5-1.2,1.2-1.2h32c0.7,0,1.2,0.5,1.2,1.2v10.9c0,0.7-0.5,1.2-1.2,1.2
		c-0.7,0-1.2-0.5-1.2-1.2V15H16.8V49h29.6v-9.8c0-0.7,0.5-1.2,1.2-1.2c0.7,0,1.2,0.5,1.2,1.2v11C48.8,50.9,48.2,51.5,47.6,51.5z"/>
	<path d="M26.3,30.5l22.9,0c0.8,0,1.5,0.7,1.5,1.5c0,0.8-0.7,1.5-1.5,1.5H29.9l5.1,5.1c0.6,0.6,0.6,1.6,0,2.1
		c-0.6,0.6-1.6,0.6-2.1,0l-7.7-7.7c-0.4-0.4-0.6-1.1-0.3-1.7C25.1,30.9,25.6,30.5,26.3,30.5z"/>
	<path d="M34,22.7c0.4,0,0.8,0.1,1.1,0.4c0.6,0.6,0.6,1.6,0,2.1l-7.7,7.7c-0.6,0.6-1.6,0.6-2.1,0c-0.6-0.6-0.6-1.6,0-2.1l7.7-7.7
		C33.2,22.9,33.6,22.7,34,22.7z"/>
</g>
</svg>
