<?xml version="1.0" encoding="utf-8"?>
<!-- Generator: Adobe Illustrator 24.0.3, SVG Export Plug-In . SVG Version: 6.00 Build 0)  -->
<svg version="1.1" id="Layer_1" xmlns="http://www.w3.org/2000/svg" xmlns:xlink="http://www.w3.org/1999/xlink" x="0px" y="0px" width="992.1" height="663"
	 viewBox="40 120 912.8 610" style="enable-background:new 0 0 992.1 992.1;" xml:space="preserve">
<style type="text/css">
	.st0{fill:#FFFFFF;}
	.st1{fill:#DFF2F7;}
	.st2{fill:#FFC5B3;}
	.st3{fill:#177ACC;}
	.st4{fill:#774B2A;}
	.st5{fill:#50C585;}
	.st6{fill:#E89C87;}
	.st7{fill:#30AA5F;}
	.st8{fill:none;stroke:#30AA5F;stroke-width:3;stroke-miterlimit:10;}
	.st9{fill:#13589E;}
</style>
<rect y="180.3" class="st0" width="992.1" height="663"/>
<g>
	<g>
		<rect x="58.3" y="724.8" class="st1" width="875.5" height="1.1"/>
	</g>
	<path class="st1" d="M382.5,473.9c1.1-2.1,2.3-3.9,3.4-5.8c1.1-1.9,2.2-3.7,3.3-5.6c1.1-1.9,2.2-3.8,3.4-5.7
		c1.1-1.9,2.2-3.7,3.3-5.6c1.1-1.9,2.3-3.8,3.3-5.7c-0.5-0.3-0.9-0.1-1.2,0c-1.8,0.4-3.7,0.9-5.5,1.4c-3.3,0.8-6.6,1.5-10,2
		c-2,0.3-3.9,0.7-5.9,1c-1.7,0.2-3.5,0.4-5.2,0.6c-1.3,0.1-2.6,0.3-3.9,0.4c-0.3,0-0.5,0.1-0.8,0.1c-2.3,0.1-4.7,0.2-7,0.4
		c-4,0.3-7.9,0.2-11.9,0.1c-2.3,0-4.6-0.3-6.9-0.4c-1.5-0.1-2.9-0.2-4.3-0.3c-1.7-0.2-3.5-0.4-5.2-0.7c-1.8-0.3-3.6-0.6-5.3-0.9
		c-5.8-1-11.5-2.4-17.1-4.2c-8-2.6-15.5-5.9-22.7-10.3c-5.3-3.2-10.2-7-14.6-11.3c-8.3-8.2-14.2-17.7-17.3-29
		c-0.9-3.3-1.5-6.7-1.8-10.1c-0.4-3.8-0.4-7.6-0.1-11.4c0.2-3.8,0.8-7.5,1.5-11.3c0.8-4.2,1.8-8.3,3.2-12.4
		c3.9-11.5,10-21.6,18.3-30.3c5.8-6,12.3-11.1,19.5-15.3c8.9-5.3,18.5-9.1,28.5-11.8c4.1-1.1,8.2-2,12.4-2.7c2.4-0.4,4.9-0.8,7.3-1
		c2.3-0.2,4.5-0.6,6.8-0.7c3-0.2,6.1-0.4,9.1-0.3c2.5,0,4.9,0,7.4,0.1c2.4,0.1,4.8,0.2,7.3,0.4c1.4,0.1,2.8,0.2,4.2,0.4
		c1.6,0.2,3.2,0.3,4.7,0.6c2,0.3,3.9,0.6,5.9,1c4.6,0.8,9.1,1.9,13.6,3.1c7.4,2.1,14.5,4.8,21.3,8.3c7.7,3.9,14.8,8.6,21.1,14.5
		c6.6,6.1,12,13,16.2,21c3.3,6.3,5.6,12.9,7.1,19.8c0.7,3.2,1.2,6.4,1.5,9.7c0.5,4.6,0.6,9.2,0.4,13.7c-0.1,2.1-0.2,4.2-0.4,6.3
		c-0.3,3.1-0.8,6.1-1.4,9.1c-1.5,7.2-3.8,14.1-7,20.7c-2.8,5.7-6.2,11-10.1,16c-6.3,8-13.7,14.7-21.9,20.7
		c-9.6,6.9-19.9,12.4-30.8,16.7c-4.8,1.9-9.6,3.6-14.6,4.9C383.1,473.9,382.8,473.9,382.5,473.9z"/>
	<path class="st2" d="M430.5,706v19.3h6.7c9.1,0,18.1-0.5,25.6-5.6l10.1-6.8l25.5,11.6c5.2,2.4,11.3-0.1,13.4-5.4l0,0l-37.4-19.3
		c-3-1.5-6.4-1.9-9.6-1L430.5,706z"/>
	<path class="st1" d="M263.4,577.7h-124c-12.7,0-22.3,11.6-19.9,24.1l24.2,123.5H309L283.3,594C281.4,584.5,273.1,577.7,263.4,577.7
		z"/>
	<path class="st3" d="M377.8,691.5l-20.2-122.7c-4.8-29.3-30.2-50.8-59.9-50.8h-1.7h-47.7c-23.7,0-38.2,15.9-46,41.4l-35.3,124.1
		c-3.7,21.9,13.2,41.8,35.4,41.8h129.2l0.2-115.2l11.4,100.4c0.9,8.4,8,14.7,16.5,14.7h72.6V689L377.8,691.5z"/>
	
		<ellipse transform="matrix(0.7071 -0.7071 0.7071 0.7071 -228.6715 332.18)" class="st4" cx="286.6" cy="442.1" rx="57.9" ry="57.9"/>
	
		<ellipse transform="matrix(0.9207 -0.3904 0.3904 0.9207 -132.3111 128.8253)" class="st4" cx="250.7" cy="389.9" rx="32.5" ry="32.5"/>
	<path class="st1" d="M728.7,577.7h124c12.7,0,22.3,11.6,19.9,24.1l-24.2,123.5H683.1L708.9,594
		C710.7,584.5,719.1,577.7,728.7,577.7z"/>
	<path class="st1" d="M612.3,502.8c-1.4-2.6-2.9-5-4.3-7.4c-1.4-2.4-2.8-4.7-4.2-7.1c-1.4-2.4-2.9-4.8-4.3-7.2
		c-1.4-2.4-2.8-4.7-4.2-7.1c-1.4-2.4-2.9-4.8-4.2-7.2c0.6-0.4,1.1-0.2,1.6-0.1c2.3,0.6,4.7,1.2,7,1.7c4.2,1,8.4,1.9,12.7,2.6
		c2.5,0.4,5,0.9,7.4,1.2c2.2,0.3,4.4,0.5,6.7,0.8c1.7,0.2,3.3,0.4,5,0.5c0.3,0,0.7,0.1,1,0.1c3,0.2,5.9,0.3,8.9,0.5
		c5,0.3,10.1,0.2,15.1,0.1c2.9,0,5.8-0.4,8.7-0.6c1.8-0.1,3.7-0.2,5.5-0.4c2.2-0.2,4.4-0.5,6.7-0.9c2.3-0.3,4.5-0.7,6.8-1.1
		c7.4-1.2,14.7-3.1,21.8-5.4c10.1-3.3,19.8-7.6,28.8-13.1c6.7-4.1,13-8.9,18.6-14.4c10.5-10.4,18.1-22.5,21.9-36.8
		c1.1-4.2,1.9-8.5,2.3-12.9c0.5-4.8,0.5-9.6,0.2-14.5c-0.3-4.8-1-9.6-1.9-14.3c-1-5.3-2.3-10.6-4.1-15.8
		c-4.9-14.6-12.6-27.4-23.3-38.6c-7.3-7.7-15.7-14.1-24.8-19.5c-11.4-6.7-23.5-11.5-36.2-14.9c-5.2-1.4-10.4-2.5-15.7-3.4
		c-3.1-0.5-6.2-1-9.3-1.3c-2.9-0.3-5.8-0.7-8.7-0.9c-3.9-0.2-7.7-0.5-11.6-0.4c-3.1,0.1-6.3,0-9.4,0.1c-3.1,0.1-6.2,0.2-9.2,0.6
		c-1.8,0.2-3.6,0.3-5.4,0.4c-2,0.2-4,0.4-6,0.7c-2.5,0.4-5,0.8-7.4,1.2c-5.8,1-11.6,2.4-17.3,4c-9.3,2.7-18.4,6.1-27,10.5
		c-9.7,5-18.8,11-26.8,18.4c-8.4,7.7-15.3,16.6-20.5,26.6c-4.2,8-7.1,16.4-9.1,25.2c-0.9,4.1-1.5,8.2-1.9,12.3
		c-0.6,5.8-0.8,11.6-0.5,17.5c0.1,2.7,0.2,5.4,0.5,8.1c0.4,3.9,1,7.8,1.8,11.6c1.9,9.2,4.8,18,8.9,26.3c3.5,7.2,7.8,14,12.8,20.3
		c8,10.1,17.4,18.7,27.8,26.3c12.2,8.7,25.3,15.7,39.2,21.3c6.1,2.4,12.3,4.6,18.6,6.3C611.5,502.7,611.8,502.7,612.3,502.8z"/>
	<path class="st5" d="M743.8,518h-47.7c-0.4,0-0.9,0-1.3,0c-28.7,0.5-54.2,18.5-65,45.2l-31.2,77.3L524,601.6l-18.1,39.5l74.9,31.7
		c21.9,8.7,46.7-1.9,55.5-23.7l20.2-63.4l5.7,139.6h127.4c22.2,0,39.1-19.9,35.4-41.8l-35.3-124.1C782,533.9,767.4,518,743.8,518z"
		/>
	<path class="st0" d="M733.1,518l11.6,33.2c0.8,2.3-1.3,4.5-3.6,3.9l-29-7.8c-2-0.5-4-0.5-5.9,0.1l-25.4,7.6
		c-2.3,0.7-4.4-1.4-3.8-3.7l9.3-32.6L733.1,518z"/>
	<path class="st2" d="M684.9,511.8l2.4,12.4c2.5,12.7,14.8,20.9,27.4,18.2h0c12.4-2.6,20.4-14.6,18-27.1l-9-46.1l-15,18.3
		L684.9,511.8z"/>
	<path class="st6" d="M729.6,499.4l-2.8-14.3c-0.1-0.2-0.2-0.4-0.4-0.5l-7.3-9.7l-10.4,12.7l-23.8,24.2l1.6,8.1
		c8.6,2.4,18.9,1.5,27.8-2.9h0C722.7,512.7,728.1,506.2,729.6,499.4z"/>
	
		<ellipse transform="matrix(0.1593 -0.9872 0.9872 0.1593 125.195 1075.3536)" class="st2" cx="694" cy="464.2" rx="50.7" ry="37.8"/>
	<path class="st2" d="M656.7,458.1l2.9-23.7c1.7-14.1,14.6-24.2,28.7-22.4l23.8,2.9c14.1,1.7,24.2,14.6,22.4,28.7l-3.3,26.5
		L656.7,458.1z"/>
	<path class="st6" d="M695.6,447.3c-7.8-0.3-14.4,5.5-15.2,13.2l-7.5-0.3c-0.3-7.7-6.4-14-14.2-14.3c-8.1-0.3-15,6.1-15.3,14.2
		c-0.3,8.1,6.1,15,14.2,15.3c7.8,0.3,14.4-5.5,15.2-13.2l7.5,0.3c0.3,7.7,6.4,14,14.2,14.3c8.1,0.3,15-6.1,15.3-14.2
		C710.1,454.5,703.7,447.6,695.6,447.3z M657.6,473.3c-7-0.3-12.4-6.1-12.2-13.1c0.3-7,6.1-12.4,13.1-12.2c7,0.3,12.4,6.1,12.2,13.1
		C670.4,468.1,664.6,473.6,657.6,473.3z M694.5,474.7c-7-0.3-12.4-6.1-12.2-13.1c0.3-7,6.1-12.4,13.1-12.2c7,0.3,12.4,6.1,12.2,13.1
		C707.4,469.5,701.5,474.9,694.5,474.7z"/>
	<path class="st6" d="M678.1,483.5h-6.2c-0.6,0-1.1-0.5-1.1-1.1l0,0c0-0.6,0.5-1.1,1.1-1.1h6.2c0.6,0,1.1,0.5,1.1,1.1l0,0
		C679.2,483,678.7,483.5,678.1,483.5z"/>
	<path class="st4" d="M692.7,466.5c-0.2,1-1.1,1.7-2.1,1.5c-1-0.2-1.7-1.1-1.5-2.1c0.2-1,1.1-1.7,2.1-1.5
		C692.2,464.6,692.8,465.5,692.7,466.5z"/>
	<path class="st0" d="M712.1,554.8c-0.2,1.5-1.6,2.5-3.1,2.2c-1.5-0.2-2.5-1.6-2.2-3.1c0.2-1.5,1.6-2.5,3.1-2.2
		C711.4,552,712.4,553.4,712.1,554.8z"/>
	<path class="st4" d="M663.7,466.5c-0.2,1-1.1,1.7-2.1,1.5c-1-0.2-1.7-1.1-1.5-2.1c0.2-1,1.1-1.7,2.1-1.5
		C663.2,464.6,663.8,465.5,663.7,466.5z"/>
	<path class="st0" d="M670.4,489.8c2.5,3.8,6.2,6.2,10.2,6c4-0.2,7.4-3,9.5-7.1L670.4,489.8z"/>
	<path class="st4" d="M731.1,472.2l13-39.2c0,0,6.3-16.2-5.3-22.8c-11.7-6.6-94.4-21.8-94.4-21.8s-12.9,38.5,15.3,46.1
		c16,4.3,66.2-0.5,66.2-0.5l-2.1,35.3L731.1,472.2z"/>
	<path class="st2" d="M737.9,472.7c-0.7,4.2-4.6,7.1-8.9,6.4c-4.2-0.7-7.1-4.6-6.4-8.9c0.7-4.2,4.6-7.1,8.9-6.4
		C735.8,464.5,738.6,468.5,737.9,472.7z"/>
	<path class="st2" d="M509.8,632.7l-63.5-30c-1.1-0.5-1.6-1.7-1.3-2.9l8.9-27.6c0.4-1.4,2-2,3.3-1.4l39.8,17.3
		c0,0-8.9-19.2,2.4-26.1l16.3,41.4l6.3,2.9L509.8,632.7z"/>
	<polygon class="st6" points="482.7,587.2 481.6,590.7 452.3,577.2 451.9,578.2 481.3,591.7 479,599 449.7,585.4 449.3,586.4 
		478.7,600.1 476.6,606.8 447.1,593.4 446.7,594.4 476.3,607.9 475,612.1 476.1,612.4 483.7,587.5 	"/>
	<path class="st2" d="M691.5,706v19.3h-6.7c-9.1,0-18.1-0.5-25.6-5.6l-10.1-6.8l-25.5,11.6c-5.2,2.4-11.3-0.1-13.4-5.4l0,0
		l37.4-19.3c3-1.5,6.4-1.9,9.6-1L691.5,706z"/>
	<g>
		<polygon class="st7" points="692.8,706 691.7,706 691.7,688.4 692.3,688.4 795.8,692.4 795.7,693.5 692.8,689.5 		"/>
	</g>
	<path class="st8" d="M765.3,584.6"/>
	<g>
		
			<rect x="519.1" y="628.7" transform="matrix(0.4016 -0.9158 0.9158 0.4016 -254.6746 868.6575)" class="st7" width="36.7" height="1.1"/>
	</g>
	<g>
		
			<rect x="712.1" y="561.9" transform="matrix(0.9988 -4.918137e-02 4.918137e-02 0.9988 -29.5876 35.7975)" class="st7" width="1.1" height="114.4"/>
	</g>
	<path class="st0" d="M249.7,524.2l-1.7,14.8c-1.5,7.8,4.2,14.7,11.8,12.6l16.7-4.5c2-0.5,4-0.5,5.9,0.1l13.5,4.1
		c7.4,2.2,13.4-4.2,12.2-12l-2.3-17.3c-0.3-2.3-2.3-4.1-4.7-4.1l-44.3,0.1C253.2,518,250.1,520.7,249.7,524.2z"/>
	<path class="st2" d="M304.7,511.8l-2.4,12.4c-2.5,12.7-14.8,20.9-27.4,18.2h0c-12.4-2.6-20.4-14.6-18-27.1l9-46.1l15,18.3
		L304.7,511.8z"/>
	<path class="st6" d="M260,499.4l2.8-14.3c0.1-0.2,0.2-0.4,0.4-0.5l7.3-9.7l10.4,12.7l23.8,24.2l-1.6,8.1
		c-8.6,2.4-18.9,1.5-27.8-2.9h0C266.9,512.7,261.5,506.2,260,499.4z"/>
	
		<ellipse transform="matrix(0.9872 -0.1593 0.1593 0.9872 -70.1823 53.0268)" class="st2" cx="295.6" cy="464.2" rx="37.8" ry="50.7"/>
	<path class="st2" d="M332.9,458.1l-2.9-23.7c-1.7-14.1-14.6-24.2-28.7-22.4l-23.8,2.9c-14.1,1.7-24.2,14.6-22.4,28.7l3.3,26.5
		L332.9,458.1z"/>
	<path class="st6" d="M311.5,483.5h6.2c0.6,0,1.1-0.5,1.1-1.1l0,0c0-0.6-0.5-1.1-1.1-1.1h-6.2c-0.6,0-1.1,0.5-1.1,1.1l0,0
		C310.4,483,310.9,483.5,311.5,483.5z"/>
	<path class="st4" d="M296.9,462.9c0.2,1,1.1,1.7,2.1,1.5c1-0.2,1.7-1.1,1.5-2.1c-0.2-1-1.1-1.7-2.1-1.5
		C297.4,461,296.7,461.9,296.9,462.9z"/>
	<path class="st0" d="M276.7,554.8c0.2,1.5,1.6,2.5,3.1,2.2c1.5-0.2,2.5-1.6,2.2-3.1c-0.2-1.5-1.6-2.5-3.1-2.2
		C277.5,552,276.5,553.4,276.7,554.8z"/>
	<path class="st4" d="M325.9,462.9c0.2,1,1.1,1.7,2.1,1.5c1-0.2,1.7-1.1,1.5-2.1c-0.2-1-1.1-1.7-2.1-1.5
		C326.4,461,325.8,461.9,325.9,462.9z"/>
	<path class="st0" d="M319.1,489.8c-2.5,3.8-6.2,6.2-10.2,6c-4-0.2-7.4-3-9.5-7.1L319.1,489.8z"/>
	<path class="st2" d="M251.6,472.7c0.7,4.2,4.6,7.1,8.9,6.4c4.2-0.7,7.1-4.6,6.4-8.9c-0.7-4.2-4.6-7.1-8.9-6.4
		C253.8,464.5,251,468.5,251.6,472.7z"/>
	<path class="st2" d="M300.6,706v19.3h6.7c9.1,0,18.1-0.5,25.6-5.6l10.1-6.8l25.5,11.6c5.2,2.4,11.3-0.1,13.4-5.4l0,0l-37.4-19.3
		c-3-1.5-6.4-1.9-9.6-1L300.6,706z"/>
	<g>
		<polygon class="st9" points="300.4,706 299.3,706 299.3,689.5 196.4,693.5 196.3,692.4 300.4,688.4 		"/>
	</g>
	<path class="st8" d="M226.8,584.6"/>
	<g>
		
			<rect x="219.5" y="618.6" transform="matrix(4.946897e-02 -0.9988 0.9988 4.946897e-02 -355.3869 864.8499)" class="st9" width="114.4" height="1.1"/>
	</g>
	<path class="st4" d="M322.5,419.3c0,0-14.9,24.9-67.5,24.4c0,0-9.9-0.6-10.9-7.1c-1-6.5,0.5-16.6,7.4-20.7
		c6.8-4.1,36.7-16.9,57-12.3C328.8,408.1,322.5,419.3,322.5,419.3z"/>
	<path class="st4" d="M301.5,451.8c-2.2-0.7-4.6-0.9-7-0.3c-2.4,0.5-4.5,1.7-6.1,3.3L301.5,451.8z"/>
	<path class="st4" d="M334.7,454.3c-1.8-1.5-3.9-2.5-6.4-2.9c-2.4-0.4-4.8,0-6.9,0.9L334.7,454.3z"/>
	<g>
		<rect x="414.1" y="689.8" class="st9" width="1.1" height="27"/>
	</g>
</g>
</svg>
