<?xml version="1.0" encoding="utf-8"?>
<!-- Generator: Adobe Illustrator 24.0.3, SVG Export Plug-In . SVG Version: 6.00 Build 0)  -->
<svg version="1.1" id="Layer_1" xmlns="http://www.w3.org/2000/svg" xmlns:xlink="http://www.w3.org/1999/xlink" x="0px" y="0px"
	 viewBox="0 0 992.1 992.1" style="enable-background:new 0 0 992.1 992.1;" xml:space="preserve">
<style type="text/css">
	.st0{fill:#FFFFFF;}
	.st1{fill:#DFF2F7;}
	.st2{fill:#FFC5B3;}
	.st3{fill:#177ACC;}
	.st4{fill:#774B2A;}
	.st5{fill:#E89C87;}
	.st6{fill:#13589E;}
	.st7{fill:none;stroke:#30AA5F;stroke-width:3;stroke-miterlimit:10;}
	.st8{fill:#A0D1EF;}
</style>
<rect y="113.9" class="st0" width="992.1" height="814"/>
<g>
	<g>
		<rect x="79.1" y="788.4" class="st1" width="833.9" height="1.4"/>
	</g>
	<g>
		<path class="st1" d="M565.2,509.1c1.8-3.4,3.7-6.5,5.6-9.6c1.8-3.1,3.6-6.1,5.4-9.2c1.8-3.1,3.7-6.2,5.5-9.3
			c1.8-3.1,3.6-6.1,5.4-9.2c1.8-3.1,3.7-6.2,5.5-9.3c-0.8-0.5-1.4-0.2-2-0.1c-3,0.7-6,1.5-9,2.3c-5.4,1.3-10.8,2.4-16.3,3.3
			c-3.2,0.5-6.4,1.1-9.6,1.6c-2.9,0.4-5.7,0.7-8.6,1c-2.2,0.2-4.3,0.5-6.5,0.7c-0.4,0-0.9,0.1-1.3,0.1c-3.8,0.2-7.7,0.4-11.5,0.6
			c-6.5,0.5-13,0.3-19.5,0.2c-3.8,0-7.5-0.5-11.2-0.7c-2.4-0.2-4.8-0.3-7.1-0.6c-2.9-0.3-5.7-0.7-8.6-1.1c-2.9-0.4-5.8-0.9-8.8-1.4
			c-9.5-1.6-18.9-4-28.1-7c-13-4.2-25.5-9.7-37.2-16.9c-8.7-5.3-16.7-11.4-24-18.6c-13.5-13.4-23.3-29-28.3-47.5
			c-1.5-5.5-2.4-11-3-16.6c-0.6-6.2-0.6-12.4-0.2-18.6c0.4-6.2,1.2-12.4,2.4-18.5c1.3-6.9,3-13.7,5.3-20.3
			c6.4-18.8,16.3-35.4,30-49.7c9.5-9.9,20.2-18.2,32-25.1c14.7-8.6,30.3-14.9,46.7-19.3c6.7-1.8,13.4-3.3,20.3-4.4
			c4-0.7,8-1.3,12-1.7c3.7-0.4,7.5-0.9,11.2-1.2c5-0.3,10-0.6,15-0.6c4.1,0.1,8.1,0,12.2,0.1c4,0.1,7.9,0.3,11.9,0.7
			c2.3,0.2,4.6,0.3,6.9,0.6c2.6,0.3,5.2,0.6,7.7,0.9c3.2,0.5,6.4,1,9.6,1.6c7.5,1.3,15,3.1,22.3,5.1c12.1,3.4,23.7,7.9,34.9,13.5
			c12.6,6.4,24.2,14.2,34.6,23.8c10.8,9.9,19.7,21.4,26.5,34.4c5.4,10.3,9.2,21.2,11.7,32.5c1.1,5.2,2,10.5,2.5,15.8
			c0.8,7.5,1,15,0.6,22.5c-0.2,3.5-0.3,6.9-0.6,10.4c-0.5,5-1.2,10-2.3,15c-2.4,11.8-6.2,23.2-11.5,34c-4.6,9.3-10.1,18-16.5,26.2
			c-10.3,13-22.4,24.2-35.9,33.9c-15.7,11.3-32.6,20.3-50.6,27.4c-7.8,3.1-15.8,5.9-24,8.1C566.2,509,565.8,509,565.2,509.1z"/>
		<path class="st2" d="M559.4,763.4v25.7h9c12.1,0,24-0.7,34-7.5l13.4-9.1l33.8,15.3c6.9,3.1,15-0.1,17.8-7.1l0,0l-49.7-25.7
			c-3.9-2-8.5-2.5-12.7-1.4L559.4,763.4z"/>
		<path class="st1" d="M337.6,593.1H173.1c-16.9,0-29.6,15.4-26.4,32l32.1,163.9h219.3L364,614.8
			C361.5,602.2,350.5,593.1,337.6,593.1z"/>
		<path class="st3" d="M489.5,744.2l-26.8-162.9c-6.4-38.9-40-67.4-79.5-67.4H381h-63.3c-31.4,0-50.8,21.2-61,55l-46.9,164.7
			c-4.9,29.1,17.5,55.5,47,55.5h171.5l0.2-152.8l15.1,133.3c1.3,11.1,10.7,19.5,21.9,19.5h96.4v-48.3L489.5,744.2z"/>
		<circle class="st4" cx="368.5" cy="413.2" r="76.8"/>
		<circle class="st4" cx="320.8" cy="343.9" r="43.1"/>
		<path class="st0" d="M319.5,522.2l-2.2,19.7c-2,10.4,5.6,19.5,15.6,16.8l22.1-6c2.6-0.7,5.3-0.7,7.9,0.1l18,5.4
			c9.8,3,17.8-5.6,16.2-16l-3.1-22.9c-0.4-3.1-3.1-5.4-6.2-5.4l-58.8,0.1C324.1,513.9,320,517.5,319.5,522.2z"/>
		<path class="st2" d="M392.4,505.7l-3.2,16.5c-3.3,16.8-19.6,27.7-36.4,24.2h0c-16.4-3.4-27.1-19.4-23.9-35.9l11.9-61.2l19.9,24.3
			L392.4,505.7z"/>
		<path class="st5" d="M333.1,489.2l3.7-18.9c0.2-0.2,0.3-0.5,0.5-0.7l9.6-12.9l13.9,16.9l31.6,32.2l-2.1,10.7
			c-11.4,3.1-25.1,2-36.9-3.9h0C342.3,506.9,335.1,498.2,333.1,489.2z"/>
		
			<ellipse transform="matrix(0.9872 -0.1593 0.1593 0.9872 -65.6406 66.2534)" class="st2" cx="380.3" cy="442.5" rx="50.1" ry="67.3"/>
		<path class="st2" d="M429.8,434.5l-3.9-31.4c-2.3-18.8-19.4-32.1-38.1-29.8l-31.5,3.9c-18.8,2.3-32.1,19.4-29.8,38.1l4.3,35.2
			L429.8,434.5z"/>
		<path class="st5" d="M401.4,468.1l8.3,0c0.8,0,1.5-0.7,1.5-1.5l0,0c0-0.8-0.7-1.5-1.5-1.5h-8.3c-0.8,0-1.5,0.7-1.5,1.5l0,0
			C399.9,467.5,400.6,468.1,401.4,468.1z"/>
		<path class="st4" d="M382.1,440.8c0.2,1.3,1.4,2.2,2.8,2c1.3-0.2,2.2-1.4,2-2.8c-0.2-1.3-1.4-2.2-2.8-2
			C382.8,438.2,381.9,439.5,382.1,440.8z"/>
		<path class="st0" d="M355.3,562.8c0.3,2,2.2,3.3,4.1,3c2-0.3,3.3-2.2,3-4.1c-0.3-2-2.2-3.3-4.1-3C356.4,559,355,560.8,355.3,562.8
			z"/>
		<path class="st4" d="M420.6,440.8c0.2,1.3,1.4,2.2,2.8,2c1.3-0.2,2.2-1.4,2-2.8c-0.2-1.3-1.4-2.2-2.8-2
			C421.3,438.2,420.4,439.5,420.6,440.8z"/>
		<path class="st0" d="M411.6,476.4c-3.3,5.1-8.2,8.2-13.6,7.9s-9.9-4-12.6-9.4L411.6,476.4z"/>
		
			<ellipse transform="matrix(0.6575 -0.7535 0.7535 0.6575 -226.8907 405.1063)" class="st2" cx="332.1" cy="452.1" rx="10.2" ry="10.2"/>
		<path class="st2" d="M386.5,753l0.5,25.6l10.6-0.8c12.1-1,23.8-2.7,33.3-10.3l12.6-10.1l34.9,12.5c7.1,2.5,14.9-1.4,17.2-8.6l0,0
			l-51.6-21.4c-4.1-1.7-8.7-1.8-12.8-0.3L386.5,753z"/>
		<g>
			<polygon class="st6" points="386.7,763.4 385.3,763.4 385.3,741.5 248.7,746.8 248.6,745.4 386.7,740 			"/>
		</g>
		<path class="st7" d="M289.1,602.3"/>
		<g>
			
				<rect x="279.3" y="647.4" transform="matrix(4.948759e-02 -0.9988 0.9988 4.948759e-02 -309.6759 970.8853)" class="st6" width="151.9" height="1.4"/>
		</g>
		<path class="st4" d="M416.1,382.9c0,0-19.7,33.1-89.6,32.4c0,0-13.2-0.7-14.4-9.4c-1.3-8.6,0.7-22.1,9.8-27.5
			c9.1-5.4,48.7-22.4,75.7-16.3S416.1,382.9,416.1,382.9z"/>
		<g>
			<rect x="537.7" y="741.9" class="st6" width="1.4" height="35.9"/>
		</g>
		<g>
			<path class="st8" d="M587.7,770.6h233.2l18-146.2c0.7-5.5-3.6-10.4-9.2-10.4H615.2c-4.7,0-8.6,3.5-9.2,8.1L587.7,770.6z"/>
			<path class="st1" d="M594.6,770.6h233.2l18-146.2c0.7-5.5-3.6-10.4-9.2-10.4H622.1c-4.7,0-8.6,3.5-9.2,8.1L594.6,770.6z"/>
			<path class="st1" d="M587.7,789.1h237.4c1.5,0,2.7-1.2,2.7-2.7v-15.8H587.7V789.1z"/>
			<path class="st8" d="M471.6,789.1h121c1.1,0,2-0.9,2-2v-16.5h-123c-2.3,0-4.2,1.9-4.2,4.2v10.1
				C467.5,787.2,469.3,789.1,471.6,789.1z"/>
			<g>
				<rect x="594.6" y="769.6" class="st8" width="233.2" height="1.9"/>
			</g>
			
				<ellipse transform="matrix(0.9736 -0.2284 0.2284 0.9736 -139.1039 182.8496)" class="st8" cx="720.3" cy="692.3" rx="13.3" ry="13.3"/>
		</g>
		<g>
			<g>
				<path d="M380.9,417.5h-20.8v20.8c0,11.5,9.3,20.8,20.8,20.8h0c11.5,0,20.8-9.3,20.8-20.8l0,0
					C401.8,426.8,392.4,417.5,380.9,417.5z M380.9,456.4c-10,0-18.1-8.1-18.1-18.1c0-10,8.1-18.1,18.1-18.1c10,0,18.1,8.1,18.1,18.1
					C399.1,448.3,390.9,456.4,380.9,456.4z"/>
				<path class="st5" d="M380.9,459.1L380.9,459.1c11.5,0,20.8-9.3,20.8-20.8h-2.7c0,10-8.1,18.1-18.1,18.1
					c-10,0-18.1-8.1-18.1-18.1h-2.7C360.1,449.8,369.4,459.1,380.9,459.1z"/>
			</g>
			<g>
				<path d="M408.7,438.3L408.7,438.3c0,11.5,9.3,20.8,20.8,20.8h0c11.5,0,20.8-9.3,20.8-20.8v-20.8h-20.8
					C418.1,417.5,408.7,426.8,408.7,438.3z M411.4,438.3c0-10,8.1-18.1,18.1-18.1c10,0,18.1,8.1,18.1,18.1c0,10-8.1,18.1-18.1,18.1
					C419.5,456.4,411.4,448.3,411.4,438.3z"/>
				<path class="st5" d="M429.6,459.1L429.6,459.1c-11.5,0-20.8-9.3-20.8-20.8h2.7c0,10,8.1,18.1,18.1,18.1c10,0,18.1-8.1,18.1-18.1
					h2.7C450.4,449.8,441,459.1,429.6,459.1z"/>
			</g>
			<rect x="400.2" y="435.7" width="9.9" height="2.6"/>
			<rect x="325.9" y="435.7" width="36.5" height="2.6"/>
		</g>
	</g>
</g>
</svg>
