<?xml version="1.0" encoding="UTF-8" standalone="no"?>
<svg width="64px" height="64px" viewBox="0 0 64 64" version="1.1" xmlns="http://www.w3.org/2000/svg" xmlns:xlink="http://www.w3.org/1999/xlink">
    <!-- Generator: Sketch 3.7.2 (28276) - http://www.bohemiancoding.com/sketch -->
    <title>loc-point-distance</title>
    <desc>Created with Sketch.</desc>
    <defs></defs>
    <g id="64px-Line" stroke="none" stroke-width="1" fill="none" fill-rule="evenodd">
        <g id="loc-point-distance"></g>
        <path d="M18.089,59.412 C18.115,59.47 18.154,59.518 18.189,59.569 C18.2,59.585 18.202,59.603 18.214,59.618 C18.218,59.623 18.224,59.624 18.228,59.629 C18.313,59.734 18.42,59.815 18.538,59.878 C18.565,59.892 18.591,59.903 18.619,59.915 C18.738,59.964 18.865,60 19,60 L19,60 L19,60 L19.004,60 C19.108,60 19.208,59.981 19.304,59.951 C19.332,59.942 19.357,59.925 19.385,59.914 C19.455,59.884 19.522,59.851 19.583,59.806 C19.594,59.798 19.607,59.795 19.618,59.787 L21.977,57.933 C22.412,57.592 22.487,56.963 22.145,56.529 C21.952,56.283 21.668,56.167 21.38,56.161 L32.466,31.617 C33.483,29.551 34,27.325 34,25 C34,16.729 27.271,10 19,10 C10.729,10 4,16.729 4,25 C4,27.326 4.517,29.552 5.521,31.585 L18.089,59.412 L18.089,59.412 Z M19,12 C26.168,12 32,17.832 32,25 C32,27.016 31.553,28.944 30.656,30.762 L19,56.571 L7.329,30.732 C6.447,28.944 6,27.016 6,25 C6,17.832 11.832,12 19,12 L19,12 Z" id="Shape" fill="#000000"></path>
        <path d="M19,32 C22.86,32 26,28.86 26,25 C26,21.14 22.86,18 19,18 C15.14,18 12,21.14 12,25 C12,28.86 15.14,32 19,32 L19,32 Z M19,20 C21.757,20 24,22.243 24,25 C24,27.757 21.757,30 19,30 C16.243,30 14,27.757 14,25 C14,22.243 16.243,20 19,20 L19,20 Z" id="Shape" fill="#000000"></path>
        <path d="M47,4 C40.935,4 36,8.935 36,15 C36,16.708 36.379,18.34 37.133,19.864 L45.736,36.722 L43.545,38.444 C43.11,38.785 43.035,39.414 43.376,39.848 C43.574,40.099 43.867,40.23 44.163,40.23 C44.379,40.23 44.597,40.16 44.78,40.017 L47.139,38.164 C47.221,38.1 47.276,38.018 47.332,37.937 C47.569,37.853 47.772,37.687 47.891,37.456 L56.874,19.853 C57.621,18.339 58,16.707 58,15 C58,8.935 53.065,4 47,4 L47,4 Z M55.086,18.955 L47,34.8 L38.919,18.966 C38.309,17.731 38,16.397 38,15 C38,10.038 42.038,6 47,6 C51.962,6 56,10.038 56,15 C56,16.397 55.69,17.731 55.086,18.955 L55.086,18.955 Z" id="Shape" fill="#000000"></path>
        <path d="M47,10 C44.243,10 42,12.243 42,15 C42,17.757 44.243,20 47,20 C49.757,20 52,17.757 52,15 C52,12.243 49.757,10 47,10 L47,10 Z M47,18 C45.346,18 44,16.654 44,15 C44,13.346 45.346,12 47,12 C48.654,12 50,13.346 50,15 C50,16.654 48.654,18 47,18 L47,18 Z" id="Shape" fill="#000000"></path>
        <path d="M38.489,44.958 L40.848,43.104 C41.283,42.763 41.358,42.134 41.016,41.7 C40.675,41.265 40.047,41.19 39.612,41.532 L37.253,43.386 C36.818,43.727 36.743,44.356 37.085,44.79 C37.282,45.041 37.575,45.172 37.872,45.172 C38.088,45.172 38.306,45.103 38.489,44.958 L38.489,44.958 Z" id="Shape" fill="#000000"></path>
        <path d="M25.908,54.844 L28.267,52.99 C28.702,52.649 28.777,52.02 28.435,51.586 C28.094,51.151 27.465,51.076 27.031,51.418 L24.672,53.272 C24.237,53.613 24.162,54.242 24.504,54.676 C24.701,54.927 24.994,55.058 25.291,55.058 C25.507,55.058 25.725,54.988 25.908,54.844 L25.908,54.844 Z" id="Shape" fill="#000000"></path>
        <path d="M30.963,48.329 C30.528,48.67 30.453,49.299 30.795,49.733 C30.992,49.984 31.285,50.115 31.582,50.115 C31.798,50.115 32.016,50.045 32.199,49.901 L34.558,48.047 C34.993,47.706 35.068,47.077 34.726,46.643 C34.385,46.208 33.756,46.133 33.322,46.475 L30.963,48.329 L30.963,48.329 Z" id="Shape" fill="#000000"></path>
    </g>
</svg>