<?xml version="1.0" encoding="utf-8"?>
<!-- Generator: Adobe Illustrator 24.0.3, SVG Export Plug-In . SVG Version: 6.00 Build 0)  -->
<svg version="1.1" xmlns="http://www.w3.org/2000/svg" xmlns:xlink="http://www.w3.org/1999/xlink" x="0px" y="0px"
	 viewBox="0 0 64 64" style="enable-background:new 0 0 64 64;" xml:space="preserve">
<style type="text/css">
	.st0{fill-rule:evenodd;clip-rule:evenodd;}
	.st1{fill:#FFFFFF;}
</style>
<g id="Lager_1">
	<title>loc-point-map</title>
	<desc>Created with Sketch.</desc>
	<g id="_x36_4px-Line">
		<g id="loc-point-map">
		</g>
		<path id="Shape" class="st0" d="M59.6,28.2C59.3,28,59,28,58.7,28.1L41,33.9l-3.1-1c-0.5-0.2-1.1,0.1-1.3,0.6
			c-0.2,0.5,0.1,1.1,0.6,1.3l2.7,0.9v21.9l-16-5.3V30.4l0.1,0c0.5,0.2,1.1-0.1,1.3-0.6c0.2-0.5-0.1-1.1-0.6-1.3l-1.4-0.5
			c-0.2-0.1-0.4-0.1-0.6,0l-18,6C4.3,34.2,4,34.6,4,35v24c0,0.3,0.2,0.6,0.4,0.8C4.6,59.9,4.8,60,5,60c0.1,0,0.2,0,0.3-0.1L23,54.1
			l17.7,5.9c0.2,0.1,0.4,0.1,0.6,0l18-6c0.4-0.1,0.7-0.5,0.7-0.9V29C60,28.7,59.8,28.4,59.6,28.2L59.6,28.2z M6,35.7l16-5.3v21.9
			L6,57.6V35.7L6,35.7z M58,52.3l-16,5.3V35.7l16-5.3V52.3L58,52.3z"/>
		<path id="Shape_1_" class="st0" d="M28,16c0,2.2,1.8,4,4,4s4-1.8,4-4s-1.8-4-4-4S28,13.8,28,16L28,16z M34,16c0,1.1-0.9,2-2,2
			s-2-0.9-2-2s0.9-2,2-2S34,14.9,34,16L34,16z"/>
		<path id="Shape_2_" class="st0" d="M22,16c0,1.5,0.3,3,1,4.4l8.1,17c0.2,0.3,0.5,0.6,0.9,0.6c0.4,0,0.7-0.2,0.9-0.6l8.1-17
			c0.7-1.4,1-2.9,1-4.4c0-5.5-4.5-10-10-10S22,10.5,22,16L22,16z M40,16c0,1.2-0.3,2.4-0.8,3.5L32,34.7l-7.2-15.1
			C24.3,18.4,24,17.2,24,16c0-4.4,3.6-8,8-8S40,11.6,40,16L40,16z"/>
	</g>
</g>
<g id="Lager_3">
	<g>
		<path class="st1" d="M52,49.9c-0.9,0-1.8-0.3-2.5-1L27.7,27.1c-1.4-1.4-1.4-3.6,0-4.9c1.4-1.4,3.6-1.4,4.9,0L54.5,44
			c1.4,1.4,1.4,3.6,0,4.9C53.8,49.6,52.9,49.9,52,49.9z"/>
		<path class="st1" d="M30.2,49.9c-0.9,0-1.8-0.3-2.5-1c-1.4-1.4-1.4-3.6,0-4.9l21.8-21.8c1.4-1.4,3.6-1.4,4.9,0
			c1.4,1.4,1.4,3.6,0,4.9L32.7,48.9C32,49.6,31.1,49.9,30.2,49.9z"/>
	</g>
</g>
<g id="Lager_2">
	<g>
		<path d="M52,48.9c-0.6,0-1.3-0.2-1.8-0.7L28.4,26.4c-1-1-1-2.6,0-3.5c1-1,2.6-1,3.5,0l21.8,21.8c1,1,1,2.6,0,3.5
			C53.3,48.7,52.6,48.9,52,48.9z"/>
		<path d="M30.2,48.9c-0.6,0-1.3-0.2-1.8-0.7c-1-1-1-2.6,0-3.5l21.8-21.8c1-1,2.6-1,3.5,0c1,1,1,2.6,0,3.5L31.9,48.2
			C31.5,48.7,30.8,48.9,30.2,48.9z"/>
	</g>
</g>
</svg>
