<?xml version="1.0" encoding="UTF-8" standalone="no"?>
<svg width="64px" height="64px" viewBox="0 0 64 64" version="1.1" xmlns="http://www.w3.org/2000/svg" xmlns:xlink="http://www.w3.org/1999/xlink">
    <!-- Generator: Sketch 3.7.2 (28276) - http://www.bohemiancoding.com/sketch -->
    <title>loc-point-map</title>
    <desc>Created with Sketch.</desc>
    <defs></defs>
    <g id="64px-Line" stroke="none" stroke-width="1" fill="none" fill-rule="evenodd">
        <g id="loc-point-map"></g>
        <path d="M59.584,28.189 C59.323,28 58.987,27.95 58.683,28.051 L41,33.946 L37.922,32.921 C37.399,32.745 36.832,33.029 36.657,33.554 C36.482,34.078 36.765,34.644 37.29,34.819 L39.999,35.722 L39.999,57.614 L23.999,52.281 L23.999,30.389 L24.098,30.422 C24.623,30.598 25.188,30.313 25.363,29.79 C25.538,29.266 25.255,28.7 24.731,28.525 L23.316,28.053 C23.11,27.985 22.889,27.985 22.683,28.053 L4.683,34.053 C4.275,34.188 4,34.569 4,35 L4,59 C4,59.321 4.154,59.623 4.416,59.811 C4.588,59.936 4.793,60 5,60 C5.106,60 5.213,59.983 5.316,59.949 L23,54.054 L40.684,59.949 C40.89,60.017 41.111,60.017 41.317,59.949 L59.317,53.949 C59.725,53.813 60.001,53.431 60.001,53 L60.001,29 C60,28.679 59.846,28.377 59.584,28.189 L59.584,28.189 Z M6,35.721 L22,30.388 L22,52.28 L6,57.613 L6,35.721 L6,35.721 Z M58,52.279 L42,57.612 L42,35.72 L58,30.387 L58,52.279 L58,52.279 Z" id="Shape" fill="#000000"></path>
        <path d="M28,16 C28,18.206 29.794,20 32,20 C34.206,20 36,18.206 36,16 C36,13.794 34.206,12 32,12 C29.794,12 28,13.794 28,16 L28,16 Z M34,16 C34,17.103 33.103,18 32,18 C30.897,18 30,17.103 30,16 C30,14.897 30.897,14 32,14 C33.103,14 34,14.897 34,16 L34,16 Z" id="Shape" fill="#000000"></path>
        <path d="M22,16 C22,17.547 22.344,19.031 23.018,20.398 L31.097,37.428 C31.263,37.777 31.614,37.999 32,37.999 C32.386,37.999 32.738,37.776 32.903,37.428 L40.976,20.41 C41.656,19.03 42,17.546 42,15.999 C42,10.485 37.514,5.999 32,5.999 C26.486,5.999 22,10.486 22,16 L22,16 Z M40,16 C40,17.238 39.725,18.425 39.176,19.541 L32,34.667 L24.818,19.528 C24.276,18.425 24,17.238 24,16 C24,11.589 27.589,8 32,8 C36.411,8 40,11.589 40,16 L40,16 Z" id="Shape" fill="#000000"></path>
    </g>
</svg>