<svg id="Lager_1" data-name="Lager 1" xmlns="http://www.w3.org/2000/svg" viewBox="0 0 134.63 49.69"><defs><style>.cls-1{fill:#1d1d1b;}</style></defs><title>ksfmedia_logo_2016</title><path class="cls-1" d="M16.61,17a.36.36,0,0,1,.4-.4h.22a.36.36,0,0,1,.4.4v7H20.7l4.57-7.12a.5.5,0,0,1,.47-.26h.33c.33,0,.45.21.29.5l-4.78,7.31v0l5.11,8.23c.19.26.07.48-.26.48h-.36a.5.5,0,0,1-.47-.26l-4.9-8H17.63v7.82a.37.37,0,0,1-.4.41H17a.37.37,0,0,1-.4-.41Z"/><path class="cls-1" d="M28.84,31.06l.17-.19a.35.35,0,0,1,.57,0,6.28,6.28,0,0,0,4,1.56c2.18,0,3.76-1.28,3.76-3.27,0-4.63-8.47-3.47-8.47-8.61,0-2.6,2.2-4.25,5-4.25a6.28,6.28,0,0,1,3.91,1.3.36.36,0,0,1,.09.54l-.14.21a.36.36,0,0,1-.57.08,5.57,5.57,0,0,0-3.33-1.14c-2,0-3.88,1.18-3.88,3.19,0,4.4,8.47,3.2,8.47,8.56,0,2.49-1.83,4.38-4.85,4.38a7.35,7.35,0,0,1-4.73-1.77A.38.38,0,0,1,28.84,31.06Z"/><path class="cls-1" d="M42.14,17a.36.36,0,0,1,.4-.4h7.54a.37.37,0,0,1,.41.4v.14a.37.37,0,0,1-.41.41H43.15v6.9h5.94a.36.36,0,0,1,.4.4V25a.36.36,0,0,1-.4.4H43.15v7.35a.37.37,0,0,1-.4.41h-.21a.37.37,0,0,1-.4-.41Z"/><path class="cls-1" d="M60.33,16.94a.37.37,0,0,1,.4-.38H61a.48.48,0,0,1,.48.31L66.17,27c.38.8.8,1.87.8,1.87h0s.43-1.07.8-1.87l4.69-10.1a.46.46,0,0,1,.47-.31h.28a.39.39,0,0,1,.41.38l1.27,15.75c0,.28-.12.43-.4.43h-.21a.38.38,0,0,1-.4-.38l-1-12.25c-.07-.81-.07-2.2-.07-2.2h0s-.48,1.39-.86,2.2l-4.3,9.13a.47.47,0,0,1-.47.3h-.38a.47.47,0,0,1-.48-.3l-4.28-9.13c-.35-.78-.87-2.25-.87-2.25h0s0,1.44-.07,2.25l-1,12.25a.39.39,0,0,1-.4.38h-.22c-.28,0-.4-.15-.4-.43Z"/><path class="cls-1" d="M83.6,21c3.08,0,4.83,2.22,4.83,5.63A.39.39,0,0,1,88,27H78.9c0,3.43,2.31,5.39,5.06,5.39a5.19,5.19,0,0,0,3.33-1.21.34.34,0,0,1,.55.07l.14.19a.36.36,0,0,1-.1.52A6.23,6.23,0,0,1,84,33.4a5.94,5.94,0,0,1-6.1-6.17C77.86,23.23,80.58,21,83.6,21Zm3.79,5.11c-.12-2.89-1.85-4.19-3.81-4.19A4.59,4.59,0,0,0,79,26.12Z"/><path class="cls-1" d="M96,21a4.57,4.57,0,0,1,4.09,2.67h0a5.27,5.27,0,0,1-.09-1V17a.36.36,0,0,1,.4-.4h.19a.36.36,0,0,1,.4.4V32.71a.37.37,0,0,1-.4.41h-.19a.37.37,0,0,1-.4-.41V31.63a4,4,0,0,1,.09-.9h0a4.51,4.51,0,0,1-4.28,2.67c-3.17,0-5.11-2.53-5.11-6.2S92.92,21,96,21Zm-.14,11.42c2.18,0,4.21-1.54,4.21-5.25,0-2.63-1.35-5.2-4.11-5.2-2.32,0-4.21,1.91-4.21,5.22S93.47,32.43,95.88,32.43Z"/><path class="cls-1" d="M104.94,17.88V17a.36.36,0,0,1,.4-.4h.38a.36.36,0,0,1,.4.4v.92a.37.37,0,0,1-.4.41h-.38A.37.37,0,0,1,104.94,17.88Zm.1,3.81a.36.36,0,0,1,.4-.4h.19a.36.36,0,0,1,.4.4v11a.37.37,0,0,1-.4.41h-.19a.37.37,0,0,1-.4-.41Z"/><path class="cls-1" d="M116.27,25.9h.78v-.4c0-2.62-1.35-3.52-3.24-3.52a5.67,5.67,0,0,0-3,.9.38.38,0,0,1-.57-.1l-.09-.14a.36.36,0,0,1,.07-.57A6.51,6.51,0,0,1,113.86,21c2.72,0,4.18,1.51,4.18,4.47v7.23a.37.37,0,0,1-.4.41h-.19a.37.37,0,0,1-.4-.41V31.55a5.16,5.16,0,0,1,.1-1.06h-.05A4.56,4.56,0,0,1,113,33.4c-1.92,0-4-1.06-4-3.43C108.94,26,114.17,25.9,116.27,25.9ZM113,32.48c2.57,0,4-2.68,4-5v-.63h-.76c-2,0-6.31,0-6.31,3.07A2.73,2.73,0,0,0,113,32.48Z"/><rect class="cls-1" y="48.7" width="134.63" height="0.99"/><rect class="cls-1" width="134.63" height="0.99"/></svg>