<?xml version="1.0" encoding="UTF-8" standalone="no"?>
<svg
   xmlns:dc="http://purl.org/dc/elements/1.1/"
   xmlns:cc="http://creativecommons.org/ns#"
   xmlns:rdf="http://www.w3.org/1999/02/22-rdf-syntax-ns#"
   xmlns:svg="http://www.w3.org/2000/svg"
   xmlns="http://www.w3.org/2000/svg"
   xmlns:sodipodi="http://sodipodi.sourceforge.net/DTD/sodipodi-0.dtd"
   xmlns:inkscape="http://www.inkscape.org/namespaces/inkscape"
   version="1.1"
   id="svg2"
   xml:space="preserve"
   width="2228.5208"
   height="1062.6298"
   viewBox="0 0 2228.5207 1062.6298"
   sodipodi:docname="hblJuniorSV.svg"
   inkscape:version="1.0.1 (0767f8302a, 2020-10-17)"><metadata
     id="metadata8"><rdf:RDF><cc:Work
         rdf:about=""><dc:format>image/svg+xml</dc:format><dc:type
           rdf:resource="http://purl.org/dc/dcmitype/StillImage" /><dc:title></dc:title></cc:Work></rdf:RDF></metadata><defs
     id="defs6"><clipPath
       clipPathUnits="userSpaceOnUse"
       id="clipPath18"><path
         d="M 0,1500 H 2000 V 0 H 0 Z"
         id="path16" /></clipPath></defs><sodipodi:namedview
     pagecolor="#ffffff"
     bordercolor="#666666"
     borderopacity="1"
     objecttolerance="10"
     gridtolerance="10"
     guidetolerance="10"
     inkscape:pageopacity="0"
     inkscape:pageshadow="2"
     inkscape:window-width="1920"
     inkscape:window-height="1017"
     id="namedview4"
     showgrid="false"
     fit-margin-top="0"
     fit-margin-left="0"
     fit-margin-right="0"
     fit-margin-bottom="0"
     inkscape:showpageshadow="false"
     showborder="false"
     inkscape:zoom="0.40924447"
     inkscape:cx="1112.521"
     inkscape:cy="572.05825"
     inkscape:window-x="1919"
     inkscape:window-y="0"
     inkscape:window-maximized="1"
     inkscape:current-layer="g10" /><g
     id="g10"
     inkscape:groupmode="layer"
     inkscape:label="HBL Junior vektor svartvit"
     transform="matrix(1.3333333,0,0,-1.3333333,-220.81239,1572.0582)"><g
       id="g12"><g
         id="g14"
         clip-path="url(#clipPath18)"><g
           id="g20"
           transform="translate(852.5713,824.7983)"><path
             d="M 0,0 V 354.243 H -100.039 V -87.875 h 221.62 V 0 Z m -466.911,120.283 5.687,-33.847 h -10.899 z m -48.17,63.202 h -72.948 v 170.758 h -98.933 V -87.875 h 98.933 V 91.743 h 72.948 V -87.875 h 55.078 c -0.521,7.376 -4.053,11.344 -11.966,11.344 v 9.772 h 11.133 V 7.012 h -2.228 v 41.665 h -4.323 v 15.015 h -4.324 c 0,5.407 -2.253,10.636 -8.601,10.636 v 4.602 h 24.052 l 36.501,87.934 h 3.595 v 18.552 l -0.821,2.374 h 0.821 v 29.026 c -1.193,0.212 -2.102,1.223 -2.102,2.39 0,1.167 0.909,2.126 2.102,2.326 v 19.351 c -1.193,0.212 -2.102,1.225 -2.102,2.392 0,1.165 0.909,2.126 2.102,2.327 v 5.009 H -427.4 c 3.483,4.619 4.334,13.484 -0.268,18.486 h 11.504 v 85.146 h -98.917 z M -218.138,25.831 C -222.24,0.563 -246.884,0.782 -246.884,0.782 c 0,0 -15.285,-0.843 -41.317,0.14 v 104.891 c 16.034,0.577 32.77,0 32.77,0 0,0 33.877,-0.484 37.652,-31.678 0,0 3.306,-25.735 -0.359,-48.304 m -70.063,242.613 c 14.786,0.499 30.259,0 30.259,0 0,0 27.965,-0.405 33.908,-24.846 0,0 3.65,-22.725 0.249,-38.852 -4.632,-22.102 -26.297,-21.946 -26.297,-21.946 0,0 -14.115,-1.84 -38.119,-0.967 z m -56.769,-182.008 5.252,33.847 5.548,-33.847 z m 156.607,58.026 -2.449,1.248 2.683,2.434 c 60.642,17.874 57.959,75.942 57.959,75.942 v 33.05 c 0,107.121 -117.587,96.843 -117.587,96.843 h -140.764 v -84.882 h 20.537 v -4.658 h -20.537 v -3.093 h 20.537 v -3.432 h -20.537 v -3.837 h 20.537 v -3.466 h -20.537 v -5.735 c 0.423,-0.421 0.687,-0.98 0.687,-1.601 0,-0.621 -0.264,-1.195 -0.687,-1.633 v -20.835 c 0.423,-0.421 0.687,-0.98 0.687,-1.601 0,-0.622 -0.264,-1.196 -0.687,-1.633 v -50.709 h 2.013 l 36.43,-87.934 h 24.098 v -4.602 c -6.289,0 -8.577,-5.229 -8.577,-10.636 h -4.323 V 48.677 h -4.293 V 7.012 l -2.825,-0.167 0.218,-73.548 11.512,-0.056 v -9.772 c -6.836,0 -10.525,-3.907 -11.126,-11.17 h 113.203 c 0,0 110.506,-8.734 110.506,98.979 V 52.58 c 0,86.922 -66.678,91.882 -66.678,91.882"
             style="fill:#010101;fill-opacity:1;fill-rule:nonzero;stroke:none"
             id="path22" /></g><g
           id="g24"
           transform="translate(469.2822,788.1299)"><path
             d="M 0,0 V -28.576 H 14.89 V 0 C 14.89,0 0.068,0.069 0,0"
             style="fill:#000000;fill-opacity:1;fill-rule:nonzero;stroke:none"
             id="path26" /></g><g
           id="g28"
           transform="translate(451.8794,779.3975)"><path
             d="m 0,0 v 8.732 c 0.067,0.069 14.583,0 14.583,0 V -19.844 H 0 v 12.072 l 4.04,3.852 z"
             style="fill:#000000;fill-opacity:1;fill-rule:nonzero;stroke:none"
             id="path30" /></g><g
           id="g32"
           transform="translate(432.1689,788.1299)"><path
             d="M 0,0 V -28.576 H -15.487 V 0 c 0,0 15.416,0.069 15.487,0"
             style="fill:#000000;fill-opacity:1;fill-rule:nonzero;stroke:none"
             id="path34" /></g><g
           id="g36"
           transform="translate(449.2148,779.3975)"><path
             d="m 0,0 v 8.732 c -0.067,0.069 -14.583,0 -14.583,0 V -19.844 H 0 v 12.072 l -4.04,3.852 z"
             style="fill:#000000;fill-opacity:1;fill-rule:nonzero;stroke:none"
             id="path38" /></g><g
           id="g40"
           transform="translate(450.4219,796.3306)"><path
             d="m 0,0 h -33.74 v 43.032 c 0,0 1.265,7.69 11.248,7.69 0,0 2.001,21.404 22.492,21.404 20.49,0 22.491,-21.404 22.491,-21.404 9.983,0 11.249,-7.69 11.249,-7.69 L 33.74,0 Z"
             style="fill:#000000;fill-opacity:1;fill-rule:nonzero;stroke:none"
             id="path42" /></g><g
           id="g44"
           transform="translate(509.9385,694.0674)"><path
             d="m 0,0 -17.232,-219.896 c -5.833,-50.129 -29.728,-92.1 -120.081,-92.1 -12.828,0 -36.145,1.75 -43.719,4.664 v 69.949 h 41.969 l 18.438,236.713 z"
             style="fill:#000000;fill-opacity:1;fill-rule:nonzero;stroke:none"
             id="path46" /></g><g
           id="g48"
           transform="translate(685.7012,428.9561)"><path
             d="m 0,0 c -24.479,-23.9 -56.541,-37.307 -88.02,-37.307 -25.062,0 -57.708,8.161 -57.708,55.96 l 20.401,247.74 H -10.49 L -29.146,44.302 H -1.162 L 16.322,266.393 H 128.826 L 110.758,44.302 h 28.562 l -5.833,-67.619 C 114.836,-30.895 83.358,-37.307 57.129,-37.307 31.479,-37.307 0,-30.895 0,-3.497 Z"
             style="fill:#000000;fill-opacity:1;fill-rule:nonzero;stroke:none"
             id="path50" /></g><g
           id="g52"
           transform="translate(983.0049,670.2832)"><path
             d="m 0,0 c 22.733,16.904 52.463,30.896 83.357,30.896 25.647,0 57.125,-8.745 57.125,-55.377 l -16.323,-172.544 h 27.985 l -5.833,-67.62 c -19.235,-7.577 -50.713,-13.989 -76.943,-13.989 -22.15,0 -59.457,1.748 -59.457,44.885 L 25.067,-50.132 H -2.917 l -17.484,-222.09 h -114.256 l 23.32,297.287 H 1.75 Z"
             style="fill:#000000;fill-opacity:1;fill-rule:nonzero;stroke:none"
             id="path54" /></g><g
           id="g56"
           transform="translate(1295.4619,695.3486)"><path
             d="M 0,0 -20.405,-222.091 H 7.578 L 1.745,-289.71 c -18.65,-7.577 -51.879,-13.989 -77.525,-13.989 -22.734,0 -59.457,1.748 -59.457,44.885 L -114.253,0 Z"
             style="fill:#000000;fill-opacity:1;fill-rule:nonzero;stroke:none"
             id="path58" /></g><g
           id="g60"
           transform="translate(1485.4951,620.1514)"><path
             d="m 0,0 h -33.229 l -12.239,-146.894 h 33.224 z m -114.836,43.721 c 24.483,27.979 60.04,41.97 97.931,41.97 114.836,0 129.409,-93.269 129.409,-142.815 0,-55.377 -13.411,-102.012 -39.057,-132.323 -21.567,-24.482 -54.796,-43.719 -100.847,-43.719 -118.331,0 -132.905,86.855 -132.905,134.071 0,55.96 13.407,105.509 45.469,142.816"
             style="fill:#000000;fill-opacity:1;fill-rule:nonzero;stroke:none"
             id="path62" /></g><g
           id="g64"
           transform="translate(1827.0889,620.1514)"><path
             d="m 0,0 h -69.368 l -16.906,-222.09 h -115.999 l 23.317,297.287 h 103.76 L -77.53,47.802 c 18.656,27.395 49.551,46.632 87.441,46.632 z"
             style="fill:#000000;fill-opacity:1;fill-rule:nonzero;stroke:none"
             id="path66" /></g><g
           id="g68"
           transform="translate(1308.4629,773.7666)"><path
             d="m 0,0 c -1.479,-26.071 -33.832,-45.438 -72.261,-43.257 -38.427,2.182 -57.02,24.441 -55.54,50.512 1.48,26.072 33.832,45.439 72.261,43.258 C -17.112,48.331 1.48,26.072 0,0"
             style="fill:#000000;fill-opacity:1;fill-rule:nonzero;stroke:none"
             id="path70" /></g></g></g></g></svg>
