<?xml version="1.0" encoding="utf-8"?>
<svg version="1.1" id="Layer_1" xmlns="http://www.w3.org/2000/svg" xmlns:xlink="http://www.w3.org/1999/xlink" x="0px" y="0px"
	 viewBox="0 0 23.6 25.8" width="24" height="26">
<g transform="translate(-2.7,-3.4)">
	<polygon fill="#010202" points="3.3,14.7 4.8,14.5 4.8,4.2 3.3,3.9 3.3,3.4 7.6,3.4 7.6,3.9 6,4.2 6,8.8 12.1,8.8 12.1,4.2 
		10.5,3.9 10.5,3.4 14.8,3.4 14.8,3.9 13.3,4.2 13.3,14.5 14.8,14.7 14.8,15.2 10.5,15.2 10.5,14.7 12.1,14.5 12.1,9.5 6,9.5 
		6,14.5 7.6,14.7 7.6,15.2 3.3,15.2 	"/>
	<polygon fill="#010202" points="17.8,14.7 19.4,14.5 19.4,4.1 16.3,4.1 15.8,6.5 15.2,6.5 15.4,3.4 24.6,3.4 24.8,6.5 24.2,6.5 
		23.7,4.1 20.6,4.1 20.6,14.5 22.2,14.7 22.2,15.2 17.8,15.2 	"/>
	<polygon fill="#010202" points="2.7,27.2 3.6,26.9 3.6,19.5 2.7,19.2 2.7,17.3 7.8,17.3 7.8,19.2 7,19.4 7,22 9.5,22 9.5,19.4 
		8.7,19.2 8.7,17.3 13.8,17.3 13.8,19.2 12.9,19.5 12.9,26.9 13.8,27.2 13.8,29.1 8.7,29.1 8.7,27.2 9.5,27 9.5,24.1 7,24.1 7,27 
		7.8,27.2 7.8,29.1 2.7,29.1 	"/>
	<polygon fill="#010202" points="16,27.2 17.1,26.9 17.1,19.5 16,19.2 16,17.3 22.2,17.3 22.2,19.2 21,19.4 21,26.9 23.2,26.9 
		24,24.5 26.2,24.5 26,29.1 16,29.1 	"/>
</g>
</svg>
