<?xml version="1.0" encoding="utf-8"?>
<!-- test -->
<svg version="1.1" id="Layer_1" xmlns="http://www.w3.org/2000/svg" xmlns:xlink="http://www.w3.org/1999/xlink" x="0px" y="0px"
	 viewBox="0 0 26 27.3" width="26" height="28">
<g transform="translate(-4.9,-5)">
<path fill="#010202" d="M23.4,5c1,0,1.9,0.6,2.7,1.4c0-0.1,0-0.2,0-0.5c0-0.2,0-0.5,0-0.8l4.2,0v11.1h-3.9V9.7
	c0-0.6-1.1-1.4-1.6-1.4c-1.5,0-1.4,2.9-1.4,3.2c0,7.6,7.3,5.4,7.3,14.6c0,2.5-0.4,6.1-3.9,6.1c-1,0-1.3-0.7-3-0.9
	c-0.1,0.1-0.1,0.4-0.1,0.8h-4.2V21.7h4.3v6c0,1.2,1.6,1.1,1.7,1.1c1.8,0,1.7-1.4,1.7-2c0-5.1-7.5-7.5-7.5-12l-0.2-2.1l0-2.3l0.1-2.1
	C19.5,6.5,22.1,5,23.4,5"/>
<polygon fill="#010202" points="13.3,5.7 4.9,5.7 4.9,8.9 6.7,8.9 6.7,28.8 5,28.8 5,31.8 17.6,31.8 17.6,21.6 13.7,21.6 13.7,28.8 
	11.3,28.8 11.3,8.9 13.3,8.9 "/>
</g>
</svg>
