<svg xmlns="http://www.w3.org/2000/svg" width="48" height="26" viewBox="0 0 48 26">
  <defs>
    <style>
      .cls-1 {
        fill-rule: evenodd;
      }
    </style>
  </defs>
  <path id="HBL_logo" data-name="HBL logo" class="cls-1" d="M240.784,550.824V529.992h-5.94v26H248v-5.167h-7.217ZM210.2,540.035h-4.331V529.992H200v26h5.873V545.428H210.2v10.563h5.873v-26H210.2v10.043Zm19.72,2.294-0.145-.074,0.159-.143a4.573,4.573,0,0,0,3.441-4.466V535.7c0-6.3-6.981-5.694-6.981-5.694H218.04v25.972h9.281s6.561,0.514,6.561-5.82v-2.43C233.882,542.62,229.923,542.329,229.923,542.329ZM224,535.038c0.878-.029,1.8,0,1.8,0a2.129,2.129,0,0,1,2.014,1.461,7.614,7.614,0,0,1,.014,2.285,1.611,1.611,0,0,1-1.561,1.29,15.144,15.144,0,0,1-2.263.057v-5.093Zm4.159,14.267a1.73,1.73,0,0,1-1.706,1.473s-0.907.049-2.453-.008V544.6c0.952-.033,1.946,0,1.946,0a2.255,2.255,0,0,1,2.235,1.863A11.409,11.409,0,0,1,228.155,549.3Z" transform="translate(-200 -530)"/>
</svg>
