<svg xmlns="http://www.w3.org/2000/svg" width="52" height="33.03" viewBox="0 0 52 33.03">
  <defs>
    <style>
      .cls-1 {
        fill: #050708;
        fill-rule: evenodd;
      }
    </style>
  </defs>
  <path class="cls-1" d="M213.93,4675.96a2.933,2.933,0,1,1,2.915,2.95,3.011,3.011,0,0,1-2.915-2.95m6.124,16.86c0-3.95-2.4-7.01-6.6-7.01s-6.6,3.06-6.6,7.01,2.4,7.05,6.6,7.05,6.6-3.1,6.6-7.05m-13.243-16.86a3.016,3.016,0,0,1,2.951-2.96,2.955,2.955,0,0,1,0,5.91,3.007,3.007,0,0,1-2.951-2.95m-6.824,16.86c0-7.56,6.235-12.84,13.465-12.84s13.463,5.28,13.463,12.84-6.233,12.88-13.463,12.88-13.465-5.31-13.465-12.88m35.742,0.04v12.51h-6.308v-25.43c0-.22.11-0.4,0.516-0.07l15.752,12.99v-12.59H252v25.47c0,0.29-.11.4-0.515,0.07Z" transform="translate(-200 -4673)"/>
</svg>
