<?xml version="1.0" encoding="utf-8"?>
<!-- Generator: Adobe Illustrator 24.0.3, SVG Export Plug-In . SVG Version: 6.00 Build 0)  -->
<svg version="1.1" id="Lager_1" xmlns="http://www.w3.org/2000/svg" xmlns:xlink="http://www.w3.org/1999/xlink" x="0px" y="0px"
	 viewBox="0 0 64 64" style="enable-background:new 0 0 64 64;" xml:space="preserve">
<style type="text/css">
	.st0{fill-rule:evenodd;clip-rule:evenodd;}
	.st1{font-family:'FZLTZHB--B51-0';}
	.st2{font-size:23.2451px;}
</style>
<title>fin-subscription</title>
<desc>Created with Sketch.</desc>
<g id="_x36_4px-Line">
	<g id="fin-subscription">
	</g>
	<path id="Shape_1_" class="st0" d="M48,33c0-9.4-7.6-17-17-17s-17,7.6-17,17s7.6,17,17,17S48,42.4,48,33L48,33z M16,33
		c0-8.3,6.7-15,15-15s15,6.7,15,15s-6.7,15-15,15S16,41.3,16,33L16,33z"/>
	<path id="Shape_2_" class="st0" d="M10.3,28.3l-2.1,2.1C9.4,19,19.2,10,31,10c0.6,0,1-0.4,1-1s-0.4-1-1-1C18,8,7.3,18,6.1,30.7
		l-2.4-2.4c-0.4-0.4-1-0.4-1.4,0c-0.4,0.4-0.4,1,0,1.4l4,4c0.1,0.1,0.2,0.2,0.3,0.2C6.7,34,6.9,34,7,34s0.3,0,0.4-0.1
		c0.1-0.1,0.2-0.1,0.3-0.2l4-4c0.4-0.4,0.4-1,0-1.4C11.3,27.9,10.7,27.9,10.3,28.3L10.3,28.3z"/>
	<path id="Shape_3_" class="st0" d="M55.7,32.3c-0.1-0.1-0.2-0.2-0.3-0.2c-0.2-0.1-0.5-0.1-0.8,0c-0.1,0.1-0.2,0.1-0.3,0.2l-4,4
		c-0.4,0.4-0.4,1,0,1.4s1,0.4,1.4,0l2.1-2.1C52.6,47,42.8,56,31,56c-0.6,0-1,0.4-1,1s0.4,1,1,1c13,0,23.7-10,24.9-22.7l2.4,2.4
		c0.2,0.2,0.5,0.3,0.7,0.3s0.5-0.1,0.7-0.3c0.4-0.4,0.4-1,0-1.4L55.7,32.3L55.7,32.3z"/>
	<text transform="matrix(1 0 0 1 20.9404 41.3796)" class="st1 st2">€</text>
</g>
</svg>
