<?xml version="1.0" encoding="utf-8"?>
<!-- Generator: Adobe Illustrator 19.2.1, SVG Export Plug-In . SVG Version: 6.00 Build 0)  -->
<svg version="1.1" id="Layer_1" xmlns="http://www.w3.org/2000/svg" xmlns:xlink="http://www.w3.org/1999/xlink" x="0px" y="0px"
	 viewBox="0 0 62 62" style="enable-background:new 0 0 62 62;" xml:space="preserve">
<style type="text/css">
	.st0{fill:#A69E9A;}
</style>
<path class="st0" d="M31,4C16.1,4,4,16.1,4,31c0,14.9,12.1,27,27,27s27-12.1,27-27C58,16.1,45.9,4,31,4z M44.8,42.5L43,44.2
	l-0.9,0.9c-0.8,0.8-2,1.2-3.4,1.2c0,0,0,0,0,0c-3.9,0-9.5-3.1-14.2-7.8c-6.8-6.8-9.7-14.6-6.6-17.7l0.9-0.9l1.8-1.8
	c0.8-0.8,2.1-0.8,2.9,0l4.6,4.6c0.4,0.4,0.6,0.9,0.6,1.4c0,0.5-0.2,1.1-0.6,1.4l-1.8,1.8l-0.7,0.7c-0.3,0.3-0.3,1.1,0.1,2.4
	c0.5,1.4,1.5,2.8,2.7,4.1c2.1,2.1,4.4,3.1,5.7,3.1c0.3,0,0.6-0.1,0.7-0.2l0.7-0.7l1.8-1.8c0.8-0.8,2.1-0.8,2.9,0l4.6,4.6
	c0.4,0.4,0.6,0.9,0.6,1.4C45.4,41.6,45.2,42.1,44.8,42.5z"/>
</svg>
