<?xml version="1.0" encoding="UTF-8" standalone="no"?>
<svg width="64px" height="64px" viewBox="0 0 64 64" version="1.1" xmlns="http://www.w3.org/2000/svg" xmlns:xlink="http://www.w3.org/1999/xlink">
    <!-- Generator: Sketch 3.7.2 (28276) - http://www.bohemiancoding.com/sketch -->
    <title>sec-shield</title>
    <desc>Created with Sketch.</desc>
    <defs></defs>
    <g id="64px-Line" stroke="none" stroke-width="1" fill="none" fill-rule="evenodd">
        <g id="sec-shield"></g>
        <path d="M31.661,59.941 C31.771,59.98 31.886,60 32,60 C32.114,60 32.229,59.98 32.338,59.941 C42.811,56.178 54,46.336 54,30 L54,13 C54,12.448 53.553,12 53,12 C43.515,12 35.587,6.556 32.619,4.215 C32.256,3.929 31.744,3.929 31.381,4.215 C28.411,6.556 20.48,12 11,12 C10.447,12 10,12.448 10,13 L10,30 C10,46.333 21.189,56.175 31.661,59.941 L31.661,59.941 Z M12,13.981 C21.058,13.644 28.6,8.829 32,6.262 C35.398,8.829 42.938,13.644 52,13.981 L52,30 C52,49.163 36.051,56.406 32,57.934 C27.949,56.405 12,49.158 12,30 L12,13.981 L12,13.981 Z" id="Shape" fill="#000000"></path>
    </g>
</svg>