<?xml version="1.0" encoding="utf-8"?>
<!-- Generator: Adobe Illustrator 24.0.3, SVG Export Plug-In . SVG Version: 6.00 Build 0)  -->
<svg version="1.1" id="Lager_1" xmlns="http://www.w3.org/2000/svg" xmlns:xlink="http://www.w3.org/1999/xlink" x="0px" y="0px"
	 viewBox="340 400 300 180" style="enable-background:new 0 0 1000 1000;" xml:space="preserve">
<style type="text/css">
	.st0{fill:#FFFFFF;stroke:#3D3636;stroke-width:5;stroke-miterlimit:10;}
	.st1{fill:none;stroke:#3D3636;stroke-width:5;stroke-linecap:round;stroke-miterlimit:10;}
	.st2{fill:#FF7F00;}
	.st3{fill:none;stroke:#3D3636;stroke-width:5;stroke-miterlimit:10;}
</style>
<g>
	<path class="st0" d="M578.4,541.5H467.2c-6.6,0-12-5.4-12-12v-68.3c0-6.6,5.4-12,12-12h111.2c6.6,0,12,5.4,12,12v68.3
		C590.4,536.1,585,541.5,578.4,541.5z"/>
	<line class="st1" x1="440.1" y1="551.3" x2="605.4" y2="551.3"/>
	<rect x="457.6" y="451.5" class="st2" width="131.2" height="10.5"/>
	<path class="st3" d="M578.4,541.5H467.2c-6.6,0-12-5.4-12-12v-68.3c0-6.6,5.4-12,12-12h111.2c6.6,0,12,5.4,12,12v68.3
		C590.4,536.1,585,541.5,578.4,541.5z"/>
</g>
<g>
	<rect x="396.6" y="501.8" class="st2" width="24.6" height="6.5"/>
	<path class="st0" d="M415.7,551.6h-13.5c-3.9,0-7-3.1-7-7v-37.3c0-3.9,3.1-7,7-7h13.5c3.9,0,7,3.1,7,7v37.3
		C422.7,548.4,419.5,551.6,415.7,551.6z"/>
	<circle class="st3" cx="409" cy="542.5" r="1.7"/>
	<rect x="396.6" y="501.8" class="st2" width="24.6" height="6.5"/>
	<path class="st3" d="M415.7,551.6h-13.5c-3.9,0-7-3.1-7-7v-37.3c0-3.9,3.1-7,7-7h13.5c3.9,0,7,3.1,7,7v37.3
		C422.7,548.4,419.5,551.6,415.7,551.6z"/>
</g>
<g id="pIbg5H.tif_1_">
	
		<image style="overflow:visible;" width="606" height="604" id="Layer_0_3_" xlink:href="5CD2A02920FE1911.png"  transform="matrix(4.191043e-02 0 0 4.191043e-02 510.0576 487.5645)">
	</image>
</g>
</svg>
