<?xml version="1.0" encoding="UTF-8" standalone="no"?>
<svg width="64px" height="64px" viewBox="0 0 64 64" version="1.1" xmlns="http://www.w3.org/2000/svg" xmlns:xlink="http://www.w3.org/1999/xlink">
    <!-- Generator: Sketch 3.7.2 (28276) - http://www.bohemiancoding.com/sketch -->
    <title>tim-pocket-watch</title>
    <desc>Created with Sketch.</desc>
    <defs></defs>
    <g id="64px-Line" stroke="none" stroke-width="1" fill="none" fill-rule="evenodd">
        <g id="tim-pocket-watch"></g>
        <path d="M33,60 C44.58,60 54,50.58 54,39 C54,29.155 47.182,20.895 38.026,18.633 C40.422,17.194 42,14.758 42,12 C42,7.589 37.962,4 33,4 C28.038,4 24,7.589 24,12 C24,14.758 25.578,17.194 27.974,18.633 C18.818,20.895 12,29.155 12,39 C12,50.58 21.42,60 33,60 L33,60 Z M32,17.932 L32,16 L34,16 L34,17.932 C33.672,17.972 33.34,18 33,18 C32.66,18 32.328,17.972 32,17.932 L32,17.932 Z M30,14 L30,12 L36,12 L36,14 L30,14 L30,14 Z M26,12 C26,8.691 29.14,6 33,6 C36.86,6 40,8.691 40,12 C40,14.387 38.361,16.448 36,17.413 L36,16 L37,16 C37.552,16 38,15.552 38,15 L38,11 C38,10.448 37.552,10 37,10 L29,10 C28.448,10 28,10.448 28,11 L28,15 C28,15.552 28.448,16 29,16 L30,16 L30,17.413 C27.639,16.448 26,14.387 26,12 L26,12 Z M33,20 C43.477,20 52,28.523 52,39 C52,49.477 43.477,58 33,58 C22.523,58 14,49.477 14,39 C14,28.523 22.523,20 33,20 L33,20 Z" id="Shape" fill="#000000"></path>
        <path d="M43,50 C43.256,50 43.512,49.902 43.707,49.707 C44.098,49.316 44.098,48.684 43.707,48.293 L34,38.586 L34,25 C34,24.448 33.552,24 33,24 C32.448,24 32,24.448 32,25 L32,39.414 L42.293,49.707 C42.488,49.902 42.744,50 43,50 L43,50 Z" id="Shape" fill="#000000"></path>
    </g>
</svg>