<?xml version="1.0" encoding="UTF-8" standalone="no"?>
<svg width="64px" height="64px" viewBox="0 0 64 64" version="1.1" xmlns="http://www.w3.org/2000/svg" xmlns:xlink="http://www.w3.org/1999/xlink">
    <!-- Generator: Sketch 3.7.2 (28276) - http://www.bohemiancoding.com/sketch -->
    <title>ui-cross-2</title>
    <desc>Created with Sketch.</desc>
    <defs></defs>
    <g id="64px-Line" stroke="none" stroke-width="1" fill="none" fill-rule="evenodd">
        <g id="ui-cross-2"></g>
        <path d="M18.293,45.707 C18.488,45.902 18.744,46 19,46 C19.256,46 19.512,45.902 19.707,45.707 L31,34.414 L42.293,45.707 C42.488,45.902 42.744,46 43,46 C43.256,46 43.512,45.902 43.707,45.707 C44.098,45.316 44.098,44.684 43.707,44.293 L32.414,33 L43.707,21.707 C44.098,21.316 44.098,20.684 43.707,20.293 C43.316,19.902 42.684,19.902 42.293,20.293 L31,31.586 L19.707,20.293 C19.316,19.902 18.684,19.902 18.293,20.293 C17.902,20.684 17.902,21.316 18.293,21.707 L29.586,33 L18.293,44.293 C17.902,44.684 17.902,45.316 18.293,45.707 L18.293,45.707 Z" id="Shape" fill="#000000"></path>
        <path d="M31,60 C45.888,60 58,47.888 58,33 C58,18.112 45.888,6 31,6 C16.112,6 4,18.112 4,33 C4,47.888 16.112,60 31,60 L31,60 Z M31,8 C44.785,8 56,19.215 56,33 C56,46.785 44.785,58 31,58 C17.215,58 6,46.785 6,33 C6,19.215 17.215,8 31,8 L31,8 Z" id="Shape" fill="#000000"></path>
    </g>
</svg>